<svg data-name="apple logo" xmlns="http://www.w3.org/2000/svg" width="58.322" height="70">
    <path data-name="Path 51311" d="M43.306 16.384c-6.123 0-8.711 3.007-12.976 3.007-4.374 0-7.709-2.989-13.012-2.989-5.194 0-10.734 3.262-14.251 8.821-4.939 7.837-4.1 22.6 3.9 35.173 2.861 4.5 6.688 9.55 11.7 9.6h.091c4.356 0 5.65-2.934 11.645-2.971h.091c5.9 0 7.089 2.952 11.427 2.952h.091c5.012-.055 9.039-5.65 11.9-10.133a49.848 49.848 0 0 0 4.41-8.493c-11.57-4.514-13.431-21.388-1.986-27.859-3.5-4.5-8.4-7.108-13.03-7.108z"/>
    <path data-name="Path 51312" d="M41.96 0a15.937 15.937 0 0 0-10.388 5.759c-2.26 2.825-4.119 7.016-3.39 11.08h.292c3.882 0 7.855-2.406 10.169-5.486A15.523 15.523 0 0 0 41.96 0z"/>
</svg>
