<svg id="Instagram" xmlns="http://www.w3.org/2000/svg" width="36.377" height="36.376">
    <defs>
        <style>
            .cls-1{fill:#fff}
        </style>
    </defs>
    <path id="Path_51840" data-name="Path 51840" class="cls-1" d="M377.963 252.757a3.481 3.481 0 1 1-3.481-3.481 3.481 3.481 0 0 1 3.481 3.481zm0 0" transform="translate(-356.293 -234.569)"/>
    <path id="Path_51841" data-name="Path 51841" class="cls-1" d="M316.188 180.167a3.458 3.458 0 0 0-1.982-1.982 5.78 5.78 0 0 0-1.939-.359c-1.1-.05-1.432-.061-4.22-.061s-3.119.011-4.22.061a5.783 5.783 0 0 0-1.939.36 3.46 3.46 0 0 0-1.983 1.982 5.784 5.784 0 0 0-.359 1.939c-.05 1.1-.061 1.431-.061 4.22s.011 3.119.061 4.22a5.781 5.781 0 0 0 .359 1.939 3.458 3.458 0 0 0 1.982 1.982 5.77 5.77 0 0 0 1.939.36c1.1.05 1.431.061 4.22.061s3.119-.011 4.22-.061a5.771 5.771 0 0 0 1.939-.36 3.459 3.459 0 0 0 1.982-1.982 5.784 5.784 0 0 0 .36-1.939c.05-1.1.061-1.432.061-4.22s-.011-3.119-.061-4.22a5.77 5.77 0 0 0-.36-1.939zm-8.142 11.522a5.363 5.363 0 1 1 5.363-5.363 5.363 5.363 0 0 1-5.363 5.363zm5.575-9.689a1.253 1.253 0 1 1 1.253-1.253 1.253 1.253 0 0 1-1.253 1.253zm0 0" transform="translate(-289.858 -168.138)"/>
    <path id="Path_51842" data-name="Path 51842" class="cls-1" d="M182.188 42.276a18.188 18.188 0 1 0 18.188 18.188 18.19 18.19 0 0 0-18.188-18.188zm10.381 22.494a7.662 7.662 0 0 1-.485 2.535 5.34 5.34 0 0 1-3.055 3.054 7.668 7.668 0 0 1-2.535.485c-1.114.051-1.469.063-4.306.063s-3.192-.012-4.306-.063a7.668 7.668 0 0 1-2.535-.485 5.34 5.34 0 0 1-3.054-3.054 7.661 7.661 0 0 1-.485-2.535c-.051-1.114-.063-1.47-.063-4.306s.012-3.192.063-4.306a7.663 7.663 0 0 1 .485-2.535 5.344 5.344 0 0 1 3.055-3.054 7.669 7.669 0 0 1 2.535-.485c1.114-.051 1.469-.063 4.306-.063s3.192.012 4.306.063a7.671 7.671 0 0 1 2.535.485 5.342 5.342 0 0 1 3.055 3.055 7.662 7.662 0 0 1 .486 2.535c.051 1.114.063 1.469.063 4.306s-.012 3.192-.063 4.306zm0 0" transform="translate(-164 -42.276)"/>
</svg>
