<svg xmlns="http://www.w3.org/2000/svg" width="36.376" height="36.376">
    <path d="M182.188 42.276a18.188 18.188 0 1 0 18.188 18.188 18.19 18.19 0 0 0-18.188-18.188zm-5.285 27.5h-4.43V56.445h4.43zm-2.215-15.146h-.029a2.531 2.531 0 1 1 .029 0zm18.187 15.146h-4.429v-7.134c0-1.792-.641-3.014-2.244-3.014a2.425 2.425 0 0 0-2.273 1.62 3.033 3.033 0 0 0-.146 1.081v7.442h-4.429s.058-12.076 0-13.327h4.429v1.887a4.4 4.4 0 0 1 3.992-2.2c2.914 0 5.1 1.9 5.1 6zm0 0" transform="translate(-164 -42.276)" style="fill:#fff"/>
</svg>
