<svg id="Logo" xmlns="http://www.w3.org/2000/svg" width="184.88" height="44.149">
    <defs>
        <style>
            .cls-1{fill:#0090df}.cls-2{fill:#fff}
        </style>
    </defs>
    <g id="Logo_icon" data-name="Logo icon">
        <g id="light" transform="translate(24.759 2.702)">
            <path id="Path_51357" data-name="Path 51357" class="cls-1" d="M-561.929-1455.637a2.393 2.393 0 0 1 2.393-2.393 13.011 13.011 0 0 0 12.993-12.992 13.012 13.012 0 0 0-12.993-12.992 13.01 13.01 0 0 0-12.993 12.992 2.4 2.4 0 0 1-2.393 2.394 2.393 2.393 0 0 1-2.393-2.394 17.78 17.78 0 0 1 17.779-17.78 17.78 17.78 0 0 1 17.78 17.78 17.78 17.78 0 0 1-17.78 17.78 2.393 2.393 0 0 1-2.393-2.394z" transform="translate(577.315 1488.803)"/>
            <path id="Path_51359" data-name="Path 51359" class="cls-1" d="m-537.557-1448.429-6.133-5.644a3.28 3.28 0 0 1-.3-4.615l.814-.926a3.278 3.278 0 0 1 4.614-.3l6.133 5.644a3.278 3.278 0 0 1 .3 4.614l-.813.927a3.282 3.282 0 0 1-4.615.3z" transform="translate(577.621 1489.067)"/>
        </g>
        <g id="dark">
            <path id="Path_51358" data-name="Path 51358" class="cls-2" d="M-573.626-1489.087a2.393 2.393 0 0 1-2.393 2.394 13.01 13.01 0 0 0-12.993 12.991 13.011 13.011 0 0 0 12.993 12.992 13.011 13.011 0 0 0 12.993-12.992 2.394 2.394 0 0 1 2.394-2.393 2.393 2.393 0 0 1 2.393 2.394 17.78 17.78 0 0 1-17.779 17.779A17.78 17.78 0 0 1-593.8-1473.7a17.78 17.78 0 0 1 17.78-17.78 2.393 2.393 0 0 1 2.393 2.393z" transform="translate(601.919 1491.48)"/>
            <path id="Path_51360" data-name="Path 51360" class="cls-2" d="m-595.607-1448.429 6.133-5.644a3.28 3.28 0 0 0 .3-4.615l-.813-.926a3.28 3.28 0 0 0-4.615-.3l-6.133 5.644a3.279 3.279 0 0 0-.3 4.614l.814.927a3.28 3.28 0 0 0 4.614.3z" transform="translate(601.843 1491.77)"/>
        </g>
    </g>
    <g id="mueeny" transform="translate(77.717 .845)">
        <path id="Path_51351" data-name="Path 51351" class="cls-2" d="M-530.73-1485.125h2.967v1.065a12.112 12.112 0 0 1 2.322-1.065 7.29 7.29 0 0 1 2.258-.354 6.5 6.5 0 0 1 2.322.4 3.69 3.69 0 0 1 1.677 1.208 14.161 14.161 0 0 1 2.822-1.161 10.969 10.969 0 0 1 3.112-.451 5.305 5.305 0 0 1 3.128.806 4.446 4.446 0 0 1 1.612 2.516 17.4 17.4 0 0 1 .484 4.579v8.582h-3v-8.514a15.728 15.728 0 0 0-.241-3.144 2.713 2.713 0 0 0-.871-1.612 2.932 2.932 0 0 0-1.854-.5 8.867 8.867 0 0 0-1.87.209 9.13 9.13 0 0 0-1.709.533l-.581.257a19.435 19.435 0 0 1 .355 4.386v8.385h-3.032v-8.32a18.241 18.241 0 0 0-.226-3.305 2.677 2.677 0 0 0-.854-1.644 2.934 2.934 0 0 0-1.854-.5 8.048 8.048 0 0 0-1.854.225 9 9 0 0 0-1.6.517l-.517.257v12.77h-3z" transform="translate(530.73 1485.48)"/>
        <path id="Path_51352" data-name="Path 51352" class="cls-2" d="M-493.438-1469.325a4.234 4.234 0 0 1-1.58-2.516 19.633 19.633 0 0 1-.451-4.757v-8.417h3v8.417a18.154 18.154 0 0 0 .225 3.337 2.424 2.424 0 0 0 .855 1.565 3.3 3.3 0 0 0 1.919.451 7.636 7.636 0 0 0 2.015-.258 14.528 14.528 0 0 0 2.048-.742v-12.77h3v16.125h-3v-1.064a11.97 11.97 0 0 1-2.435 1.1 8.286 8.286 0 0 1-2.37.322 5.584 5.584 0 0 1-3.226-.793z" transform="translate(522.301 1485.369)"/>
        <path id="Path_51353" data-name="Path 51353" class="cls-2" d="M-471.852-1470.565q-1.58-1.917-1.58-6.078 0-4.483 1.692-6.66a6.227 6.227 0 0 1 5.241-2.176q6.578 0 6.578 7.482l-.193 2.193H-470.4a7.218 7.218 0 0 0 .451 2.693 2.6 2.6 0 0 0 1.355 1.37 6.65 6.65 0 0 0 2.644.419q1 0 2.258-.049t2.257-.146l.9-.1.064 2.322a37.9 37.9 0 0 1-6.094.645q-3.707.004-5.287-1.915zm8.934-7.594a6.345 6.345 0 0 0-.823-3.709 3.229 3.229 0 0 0-2.757-1.1 3.611 3.611 0 0 0-2.968 1.145 5.885 5.885 0 0 0-.967 3.66z" transform="translate(517.033 1485.48)"/>
        <path id="Path_51354" data-name="Path 51354" class="cls-2" d="M-450.365-1470.565q-1.581-1.917-1.581-6.078 0-4.483 1.693-6.66a6.224 6.224 0 0 1 5.241-2.176q6.579 0 6.578 7.482l-.193 2.193h-10.288a7.216 7.216 0 0 0 .452 2.693 2.6 2.6 0 0 0 1.354 1.37 6.65 6.65 0 0 0 2.644.419q1 0 2.258-.049t2.257-.146l.9-.1.065 2.322a37.919 37.919 0 0 1-6.1.645q-3.701.004-5.28-1.915zm8.933-7.594a6.339 6.339 0 0 0-.823-3.709 3.228 3.228 0 0 0-2.757-1.1 3.614 3.614 0 0 0-2.968 1.145 5.9 5.9 0 0 0-.967 3.66z" transform="translate(511.897 1485.48)"/>
        <path id="Path_51355" data-name="Path 51355" class="cls-2" d="M-429.485-1485.125h2.967v1.065a12 12 0 0 1 2.516-1.1 8.63 8.63 0 0 1 2.386-.323 5.528 5.528 0 0 1 3.193.806 4.368 4.368 0 0 1 1.644 2.5 17.367 17.367 0 0 1 .483 4.6v8.577h-3v-8.514a15.66 15.66 0 0 0-.242-3.144 2.634 2.634 0 0 0-.9-1.612 3.142 3.142 0 0 0-1.919-.5 9.7 9.7 0 0 0-3.58.742l-.549.257V-1469h-3z" transform="translate(506.527 1485.48)"/>
        <path id="Path_51356" data-name="Path 51356" class="cls-2" d="m-403.346-1465.023-5.415-19.991h3l3.677 13.544h.967l3.709-13.544h3l-9.425 34.9h-2.967z" transform="translate(501.574 1485.369)"/>
    </g>
    <g id="معينى" transform="translate(77.756 20.076)">
        <path id="Path_51384" data-name="Path 51384" class="cls-2" d="M-509.083-313.99h-10.741a5.236 5.236 0 0 1-1.306 3.779 4.706 4.706 0 0 1-3.417 1.206h-5.608a7.667 7.667 0 0 1-2.754-.522 5.347 5.347 0 0 1-2.261-1.608 4.036 4.036 0 0 1-.894-2.653 13.535 13.535 0 0 1 .171-1.87q.17-1.165.372-2.151l2.513.4q-.141.844-.252 1.818t-.11 1.4a2.554 2.554 0 0 0 .392 1.387 2.753 2.753 0 0 0 1.1.985 3.506 3.506 0 0 0 1.628.362h5.548a2.057 2.057 0 0 0 1.608-.564 3.047 3.047 0 0 0 .522-1.969h-.061a6.46 6.46 0 0 1-1.648-.191 4.617 4.617 0 0 1-1.487-.734l1.166-2.09a2.365 2.365 0 0 0 .925.483 6.987 6.987 0 0 0 1.246.081h13.354zm-21.233 6.432h2.07v2.513h-2.07zm3.055 0h2.07v2.513h-2.07z" transform="translate(536.065 328.577)"/>
        <path id="Path_51385" data-name="Path 51385" class="cls-2" d="M-497.927-315.688h5.025v2.452h-5.025z" transform="translate(524.507 327.823)"/>
        <path id="Path_51386" data-name="Path 51386" class="cls-2" d="M-490.129-315.688h5.025v2.452h-5.025z" transform="translate(521.733 327.823)"/>
        <path id="Path_51387" data-name="Path 51387" class="cls-2" d="M-482.33-315.688h5.025v2.452h-5.025z" transform="translate(518.959 327.823)"/>
        <path id="Path_51388" data-name="Path 51388" class="cls-2" d="M-465.827-322.356v2.452h-8.7v-2.452h2.995v-7.6h2.693v7.6zm-5.628-12.081h2.472v2.613h-2.472z" transform="translate(516.186 334.491)"/>
        <path id="Path_51389" data-name="Path 51389" class="cls-2" d="M-461.024-315.688H-456v2.452h-5.025z" transform="translate(511.382 327.823)"/>
        <path id="Path_51390" data-name="Path 51390" class="cls-2" d="M-444.521-319.882v2.452h-8.7v-2.452h2.995v-7.6h2.693v7.6zm-6.955 4.061h2.07v2.512h-2.07zm3.055 0h2.07v2.512h-2.07z" transform="translate(508.608 332.017)"/>
        <path id="Path_51391" data-name="Path 51391" class="cls-2" d="M-426.33-320.015v2.452h-2.633a9.268 9.268 0 0 1-2.04-.232 10.229 10.229 0 0 1-1.939-.633 10.349 10.349 0 0 1-1.919.633 8.677 8.677 0 0 1-1.94.232h-2.914v-2.452h2.854a6.522 6.522 0 0 0 1.367-.161 16.554 16.554 0 0 1-2.16-2.271 3.411 3.411 0 0 1-.734-2.07l-.061-1.769a10.55 10.55 0 0 1 2.472-1.086 9.976 9.976 0 0 1 3.015-.483 10.212 10.212 0 0 1 3.026.483 11.362 11.362 0 0 1 2.543 1.086l-.081 1.769a3.358 3.358 0 0 1-.734 2.07 18.234 18.234 0 0 1-2.16 2.271 6.6 6.6 0 0 0 1.387.161zm-4.412-3.1a3.137 3.137 0 0 0 .693-1.789 9.036 9.036 0 0 0-2.894-.5 8.628 8.628 0 0 0-2.834.5 3.251 3.251 0 0 0 .724 1.849 6.8 6.8 0 0 0 2.131 1.829 7.552 7.552 0 0 0 2.18-1.885z" transform="translate(503.804 332.15)"/>
        <path id="Path_51392" data-name="Path 51392" class="cls-2" d="M-408.2-327.159a3.08 3.08 0 0 1 1.508 1.709 8.853 8.853 0 0 1 .392 2.894v5.025h-12.643v-2.452h3.136a13.517 13.517 0 0 1-.282-2.553 13.815 13.815 0 0 1 .221-2.372 18.428 18.428 0 0 1 .5-2.191 6.836 6.836 0 0 1 1.608-.462 12.833 12.833 0 0 1 2.372-.2 6.827 6.827 0 0 1 3.188.602zm-5.186 6.021q.091.714.191 1.156h4.2v-2.633a3.2 3.2 0 0 0-.553-2.07 2.683 2.683 0 0 0-2.121-.663 7.366 7.366 0 0 0-1.528.161 14.629 14.629 0 0 0-.282 2.653 11.169 11.169 0 0 0 .096 1.396z" transform="translate(496.415 332.117)"/>
        <path id="Path_51443" data-name="Path 51443" class="cls-2" d="M11.123-20.24a1.547 1.547 0 0 1 1.352.591 2.112 2.112 0 0 1 .372 1.4v.963l-3.887.76v-.828l.862-.237a2.921 2.921 0 0 1-.27-1.149 1.516 1.516 0 0 1 .4-1.082 1.536 1.536 0 0 1 1.171-.418zm.034 1.082a.635.635 0 0 0-.338.093.355.355 0 0 0-.152.33 1.742 1.742 0 0 0 .3.828l.727-.186a1.982 1.982 0 0 0 .051-.406.636.636 0 0 0-.177-.507.617.617 0 0 0-.411-.152zm-.034-1.082a1.547 1.547 0 0 1 1.352.591 2.112 2.112 0 0 1 .372 1.4v.963l-3.887.76v-.828l.862-.237a2.921 2.921 0 0 1-.27-1.149 1.516 1.516 0 0 1 .4-1.082 1.536 1.536 0 0 1 1.171-.418zm.034 1.082a.635.635 0 0 0-.338.093.355.355 0 0 0-.152.33c0 .214.046.668.3.828s.727-.186.727-.186a1.982 1.982 0 0 0 .051-.406.636.636 0 0 0-.177-.507.617.617 0 0 0-.411-.152z" transform="translate(72.927 20.24)"/>
    </g>
</svg>
