<svg xmlns="http://www.w3.org/2000/svg" width="93.785" height="72.888">
    <defs>
        <style>
            .cls-1{fill:#0090df;stroke:#fff}
        </style>
    </defs>
    <g id="partners_icon" data-name="partners icon" transform="translate(-227.556 -148.859)">
        <path id="Path_51836" data-name="Path 51836" class="cls-1" d="m320.182 173.938-2.417-4.185a1.812 1.812 0 1 0-3.138 1.812l2.417 4.185a.707.707 0 0 1-.259.966L310.4 180.4a.708.708 0 0 1-.965-.258l-12.854-22.264a.707.707 0 0 1 .258-.965l6.39-3.69a.709.709 0 0 1 .966.259l2.285 3.958a1.812 1.812 0 0 0 3.138-1.812l-2.286-3.958a4.334 4.334 0 0 0-5.916-1.585l-6.39 3.689a4.315 4.315 0 0 0-1.958 2.435H274.95a9.461 9.461 0 0 0-6.733 2.791l-1.855 1.855a21.453 21.453 0 0 0-4.971-.587h-5.625a4.316 4.316 0 0 0-2.024-2.666l-6.39-3.69a4.331 4.331 0 0 0-5.916 1.585l-12.854 22.264a4.33 4.33 0 0 0 1.585 5.916l6.389 3.689a4.3 4.3 0 0 0 2.953.5l5.23 5.231a6.575 6.575 0 0 0-.122 1.261 6.51 6.51 0 0 0 6.155 6.5 6.706 6.706 0 0 0-.037.688 6.518 6.518 0 0 0 6.518 6.518h.142v.142a6.518 6.518 0 0 0 6.518 6.518h.142v.142a6.518 6.518 0 0 0 11.126 4.609l2.577-2.577a6.47 6.47 0 0 0 1.591-2.606 6.523 6.523 0 0 0 10.093-3.312 6.521 6.521 0 0 0 9.941-4.148 6.519 6.519 0 0 0 6.664-10.8l-4.229-4.229 7.719-7.719a4.284 4.284 0 0 0 2.675-.547l6.389-3.689a4.332 4.332 0 0 0 1.585-5.916zm-88.2 6.6a.707.707 0 0 1-.259-.966l12.854-22.264a.7.7 0 0 1 .43-.329.714.714 0 0 1 .185-.024.7.7 0 0 1 .352.094l6.39 3.689a.708.708 0 0 1 .258.966l-12.853 22.265a.709.709 0 0 1-.966.258zm16.264 13.823a2.875 2.875 0 0 1 .847-2.047l1.563-1.563a2.894 2.894 0 1 1 4.094 4.093l-1.564 1.564a2.894 2.894 0 0 1-4.941-2.046zm9.013 10.086a2.894 2.894 0 0 1-2.046-4.941l2.577-2.577a2.894 2.894 0 1 1 4.093 4.093L259.3 203.6a2.874 2.874 0 0 1-2.047.847zm6.655 6.656a2.894 2.894 0 0 1-2.046-4.941l2.577-2.577a2.894 2.894 0 1 1 4.092 4.093l-2.577 2.577a2.875 2.875 0 0 1-2.047.847zm11.28 3.231-2.577 2.577a2.895 2.895 0 0 1-4.094-4.094l2.578-2.577a2.894 2.894 0 0 1 4.093 4.094zm28.29-11.645a2.892 2.892 0 0 1-4.092 0L282.094 185.4a1.812 1.812 0 0 0-2.563 2.562l15.509 15.508a2.894 2.894 0 0 1-4.093 4.094l-18.636-18.636a1.812 1.812 0 0 0-2.562 2.563L285.257 207a2.894 2.894 0 0 1-4.093 4.093l-3.411-3.41-.015-.014A6.5 6.5 0 0 0 273 205.78v-.144a6.51 6.51 0 0 0-6.659-6.511v-.144a6.513 6.513 0 0 0-7.141-6.485 6.517 6.517 0 0 0-11.119-4.3l-1.564 1.564-.006.006-4.023-4.024 12.612-21.845h6.279a17.534 17.534 0 0 1 1.839.1l-2.07 2.07a6.518 6.518 0 0 0 9.218 9.218l4.891-4.892 28.222 28.207a2.9 2.9 0 0 1 0 4.093zm-17.406-26.624a10.282 10.282 0 0 0 4.252-8.333 1.811 1.811 0 1 0-3.623 0 6.658 6.658 0 0 1-3.245 5.718l-6.9-6.9a1.811 1.811 0 0 0-2.561-.018l-6.182 6.182a2.895 2.895 0 1 1-4.093-4.093l7.06-7.059a5.857 5.857 0 0 1 4.17-1.728h18.57l12.771 22.122c.03.053.063.1.1.153l-7.136 7.136zm0 0" transform="translate(.067 -.139)"/>
        <path id="Path_51837" data-name="Path 51837" class="cls-1" d="M570.531 203.959a1.814 1.814 0 1 0-1.281-.531 1.83 1.83 0 0 0 1.281.531zm0 0" transform="translate(-258.343 -38.687)"/>
    </g>
</svg>
