<svg xmlns="http://www.w3.org/2000/svg" width="92.779" height="92.639">
    <defs>
        <style>
            .cls-1{fill:#0090df;stroke:#fff;stroke-width:.7px}
        </style>
    </defs>
    <g id="services_icon" data-name="services icon" transform="translate(.405 .519)">
        <path id="Path_51788" data-name="Path 51788" class="cls-1" d="M384.211 263.034a1.538 1.538 0 0 0 1.537-1.537v-7.687a1.537 1.537 0 0 0-2.079-1.44l-12.038 4.515H361.15a6.15 6.15 0 1 0 0 12.3h.43l2.059 6.179a4.454 4.454 0 0 0 8.451-2.817l-1.121-3.362h.663l12.038 4.515a1.563 1.563 0 0 0 .541.1 1.538 1.538 0 0 0 1.537-1.537v-4.612a1.537 1.537 0 0 0-3.075 0v2.394l-9.225-3.459v-7.095l9.225-3.459v5.468a1.538 1.538 0 0 0 1.537 1.537zm-13.837 3.075h-6.15v-6.15h6.15zm-12.3-3.075a3.074 3.074 0 0 1 3.075-3.075v6.15a3.074 3.074 0 0 1-3.075-3.075zm11.1 10.484a1.357 1.357 0 0 1-.189 1.242 1.431 1.431 0 0 1-2.428-.371l-1.735-5.206h2.908zm0 0" transform="translate(-325.776 -217.935)"/>
        <path id="Path_51789" data-name="Path 51789" class="cls-1" d="M522.148 152.038v3.075a1.538 1.538 0 0 0 1.537 1.537h9.224a1.538 1.538 0 0 0 1.537-1.537v-3.075a4.6 4.6 0 0 0-2.153-3.889 4.549 4.549 0 0 0 .615-2.261 4.612 4.612 0 1 0-9.224 0 4.551 4.551 0 0 0 .615 2.261 4.6 4.6 0 0 0-2.152 3.889zm9.224 1.537h-6.15v-1.537a1.538 1.538 0 0 1 1.537-1.537h3.075a1.538 1.538 0 0 1 1.537 1.537zm-3.075-9.225a1.537 1.537 0 1 1-1.537 1.537 1.537 1.537 0 0 1 1.537-1.537zm0 0" transform="translate(-450.35 -135.126)"/>
        <path id="Path_51790" data-name="Path 51790" class="cls-1" d="M516.148 404.038v3.075a1.538 1.538 0 0 0 1.537 1.537h9.224a1.538 1.538 0 0 0 1.537-1.537v-3.075a4.6 4.6 0 0 0-2.153-3.889 4.55 4.55 0 0 0 .615-2.261 4.612 4.612 0 0 0-9.224 0 4.55 4.55 0 0 0 .615 2.261 4.6 4.6 0 0 0-2.152 3.889zm9.225 1.537h-6.15v-1.537a1.538 1.538 0 0 1 1.537-1.537h3.075a1.538 1.538 0 0 1 1.537 1.537zm-3.075-9.224a1.537 1.537 0 1 1-1.537 1.537 1.537 1.537 0 0 1 1.537-1.537zm0 0" transform="translate(-445.887 -323.042)"/>
        <path id="Path_51791" data-name="Path 51791" class="cls-1" d="m449.216 190.087-13.837-10a1.541 1.541 0 0 0-1.807 0l-7.091 5.127-6.213-6.347a22.768 22.768 0 0 0 .593-30.809l3.27-3.256h23.962a1.534 1.534 0 0 0 1.537-1.529V131.04a1.537 1.537 0 0 0-3.075 0v10.705h-21.522v-21.41h21.524v4.588a1.537 1.537 0 0 0 3.075 0v-6.117a1.534 1.534 0 0 0-1.537-1.529H423.5a1.534 1.534 0 0 0-1.537 1.529v23.836l-3.273 3.256a22.936 22.936 0 0 0-4.078-2.849 1.531 1.531 0 1 0-1.483 2.679 19.864 19.864 0 0 1-9.615 37.308 20.312 20.312 0 0 1-3.895-.384 1.547 1.547 0 0 0-1.155.229 1.527 1.527 0 0 0 .559 2.772 23.386 23.386 0 0 0 4.491.442 23.014 23.014 0 0 0 14.517-5.134l5.943 6.07-4.23 3.059a1.525 1.525 0 0 0-.558 1.709l5.284 16.18a1.538 1.538 0 0 0 1.462 1.057h17.1a1.538 1.538 0 0 0 1.464-1.057l1.67-5.1a1.537 1.537 0 0 0-2.922-.945l-1.328 4.046h-14.87l-4.594-14.069 12.029-8.691 12.029 8.691-1.371 4.2a1.522 1.522 0 0 0 .051 1.2 1.54 1.54 0 0 0 2.87-.26l1.718-5.259a1.525 1.525 0 0 0-.556-1.707zm0 0" transform="translate(-357.847 -117.276)"/>
        <path id="Path_51792" data-name="Path 51792" class="cls-1" d="M270.148 152.038v3.075a1.538 1.538 0 0 0 1.537 1.537h9.224a1.538 1.538 0 0 0 1.537-1.537v-3.075a4.6 4.6 0 0 0-2.153-3.889 4.549 4.549 0 0 0 .615-2.261 4.612 4.612 0 1 0-9.224 0 4.551 4.551 0 0 0 .615 2.261 4.6 4.6 0 0 0-2.152 3.889zm9.225 1.537h-6.15v-1.537a1.538 1.538 0 0 1 1.537-1.537h3.075a1.538 1.538 0 0 1 1.537 1.537zm-3.075-9.225a1.537 1.537 0 1 1-1.537 1.537 1.537 1.537 0 0 1 1.537-1.537zm0 0" transform="translate(-262.433 -135.126)"/>
        <path id="Path_51793" data-name="Path 51793" class="cls-1" d="m266.971 185-.352-.2 4.4-4.379a23.2 23.2 0 0 0 4.466 3.059 1.541 1.541 0 0 0 2.016-.672 1.525 1.525 0 0 0-.588-2.033 19.87 19.87 0 0 1 13.545-37.009 1.531 1.531 0 1 0 .655-2.99 23.364 23.364 0 0 0-4.921-.536 23.009 23.009 0 0 0-15.347 5.866l-6.224-6.363a13.66 13.66 0 0 0 1.283-15.524 1.541 1.541 0 0 0-2.819.369 1.519 1.519 0 0 0 .153 1.161 10.715 10.715 0 0 1-2.854 13.932 10.851 10.851 0 0 1-14.252-1.066 10.709 10.709 0 0 1-.727-14.2 10.847 10.847 0 0 1 14.07-2.5 1.542 1.542 0 0 0 2.15-.488 1.524 1.524 0 0 0-.552-2.124 13.9 13.9 0 0 0-14.331-.042 13.731 13.731 0 0 0 1.454 24.347 13.9 13.9 0 0 0 14.225-1.73l6.266 6.4a22.764 22.764 0 0 0 .153 29.987l-4.979 4.953-9.191-5.277a1.542 1.542 0 0 0-1.537 0L240.835 185a1.528 1.528 0 0 0-.769 1.326v8.956a1.537 1.537 0 0 0 3.075 0v-8.074l10.762-6.181 10.762 6.181v12.356l-10.765 6.179-11.531-6.623a1.542 1.542 0 0 0-2.091.565 1.524 1.524 0 0 0 .553 2.084l12.3 7.064a1.547 1.547 0 0 0 1.537 0l12.3-7.064a1.527 1.527 0 0 0 .769-1.324v-14.12a1.529 1.529 0 0 0-.769-1.326zm0 0" transform="translate(-240.038 -117.286)"/>
        <path id="Path_51794" data-name="Path 51794" class="cls-1" d="M270.148 398.038v3.075a1.538 1.538 0 0 0 1.537 1.537h9.224a1.538 1.538 0 0 0 1.537-1.537v-3.075a4.6 4.6 0 0 0-2.153-3.889 4.549 4.549 0 0 0 .615-2.261 4.612 4.612 0 0 0-9.224 0 4.55 4.55 0 0 0 .615 2.261 4.6 4.6 0 0 0-2.152 3.889zm9.225 1.537h-6.15v-1.537a1.538 1.538 0 0 1 1.537-1.537h3.075a1.538 1.538 0 0 1 1.537 1.537zm-3.075-9.225a1.537 1.537 0 1 1-1.537 1.537 1.537 1.537 0 0 1 1.537-1.537zm0 0" transform="translate(-262.432 -318.58)"/>
        <path id="Path_51795" data-name="Path 51795" class="cls-1" d="M561.484 276.741a1.538 1.538 0 0 0 1.976-.909 41.474 41.474 0 0 0 1.032-25.548 1.538 1.538 0 1 0-2.96.831 38.4 38.4 0 0 1-.956 23.65 1.538 1.538 0 0 0 .908 1.976zm0 0" transform="translate(-478.86 -215.594)"/>
        <path id="Path_51796" data-name="Path 51796" class="cls-1" d="M391.608 439.67a38.488 38.488 0 0 1-23.651-.015 1.537 1.537 0 1 0-.949 2.921 41.366 41.366 0 0 0 25.546.014 1.537 1.537 0 1 0-.946-2.921zm0 0" transform="translate(-333.874 -357.463)"/>
        <path id="Path_51797" data-name="Path 51797" class="cls-1" d="M261.576 249.333a1.539 1.539 0 0 0-1.9 1.065 41.487 41.487 0 0 0 1.037 25.548 1.537 1.537 0 1 0 2.875-1.067 38.42 38.42 0 0 1-.951-23.65 1.537 1.537 0 0 0-1.066-1.9zm0 0" transform="translate(-253.507 -215.708)"/>
        <path id="Path_51798" data-name="Path 51798" class="cls-1" d="M367.691 140.349a1.571 1.571 0 0 0 .476-.073 38.306 38.306 0 0 1 23.65 0 1.538 1.538 0 1 0 .949-2.922 41.425 41.425 0 0 0-25.548 0 1.538 1.538 0 0 0 .473 3zm0 0" transform="translate(-334.084 -130.708)"/>
    </g>
</svg>
