<svg xmlns="http://www.w3.org/2000/svg" width="92.7" height="92.699">
    <defs>
        <style>
            .cls-1{fill:#0090df;stroke:#fff;stroke-width:.7px}
        </style>
    </defs>
    <g id="translation_icon" data-name="translation icon" transform="translate(-163.65 -41.926)">
        <path id="Path_51807" data-name="Path 51807" class="cls-1" d="M248.453 74.62h-25.272c.08-.887.124-1.784.124-2.692a29.66 29.66 0 0 0-44.469-25.69 1.8 1.8 0 1 0 1.8 3.111 26.06 26.06 0 1 1 13.018 48.638 25.768 25.768 0 0 1-16.34-5.762 1.8 1.8 0 0 0-1.656-.317l-4.769 1.247 1.869-4.106a1.8 1.8 0 0 0-.183-1.8 26.073 26.073 0 0 1-1.481-28.368 1.8 1.8 0 1 0-3.109-1.8 29.672 29.672 0 0 0 1.074 31.419l-3.009 6.6a1.8 1.8 0 0 0 2.09 2.483l7.642-2a29.647 29.647 0 0 0 22 5.7v15.735a7.555 7.555 0 0 0 7.546 7.547h25.414l11.363 9.3a1.8 1.8 0 0 0 2.935-1.391v-7.906h3.414a7.556 7.556 0 0 0 7.546-7.542V82.167a7.555 7.555 0 0 0-7.547-7.547zm3.953 42.406a3.958 3.958 0 0 1-3.953 3.953h-5.211a1.8 1.8 0 0 0-1.8 1.8v5.911l-8.875-7.261c-.489-.446-.917-.446-1.88-.446h-25.36a3.957 3.957 0 0 1-3.952-3.953v-16.472a29.752 29.752 0 0 0 21.257-22.345h25.822a3.957 3.957 0 0 1 3.953 3.953zm0 0"/>
        <path id="Path_51808" data-name="Path 51808" class="cls-1" d="M471.578 310.061a1.8 1.8 0 0 0-.765-3.421h-.736l-5.795-13.207a1.8 1.8 0 0 0-3.291 0L455.2 306.64h-.736a1.8 1.8 0 0 0-.765 3.421l-2.158 4.919a1.8 1.8 0 1 0 3.291 1.444l2.716-6.19h10.185l2.716 6.19a1.8 1.8 0 1 0 3.29-1.444zm-12.458-3.421 3.516-8.013 3.516 8.013zm0 0" transform="translate(-235.746 -205.145)"/>
        <path id="Path_51809" data-name="Path 51809" class="cls-1" d="M211.2 91.268a1.8 1.8 0 1 0-1.27-.526 1.813 1.813 0 0 0 1.27.526zm0 0" transform="translate(-37.244 -37.241)"/>
        <path id="Path_51810" data-name="Path 51810" class="cls-1" d="M265.067 152.914a1.8 1.8 0 1 0 1.728 3.152 20.578 20.578 0 0 0 8.893-9.647 20.58 20.58 0 0 0 8.893 9.647 1.8 1.8 0 0 0 1.728-3.152 16.994 16.994 0 0 1-8.632-12.365h7.978a1.8 1.8 0 1 0 0-3.594h-8.17v-7.488a1.8 1.8 0 0 0-3.594 0v7.488H267.4a1.8 1.8 0 1 0 0 3.594h6.3a16.992 16.992 0 0 1-8.632 12.365zm0 0" transform="translate(-82.14 -70.051)"/>
    </g>
</svg>
