<svg xmlns="http://www.w3.org/2000/svg" width="36.376" height="36.376">
    <path d="M182.188 42.276a18.188 18.188 0 1 0 18.188 18.188 18.19 18.19 0 0 0-18.188-18.188zm8.3 14.181q.012.268.012.539a11.8 11.8 0 0 1-11.878 11.878 11.817 11.817 0 0 1-6.4-1.875 8.489 8.489 0 0 0 1 .058 8.377 8.377 0 0 0 5.185-1.787 4.179 4.179 0 0 1-3.9-2.9 4.159 4.159 0 0 0 1.886-.072 4.176 4.176 0 0 1-3.349-4.092v-.053a4.146 4.146 0 0 0 1.891.522 4.178 4.178 0 0 1-1.292-5.573 11.853 11.853 0 0 0 8.605 4.362 4.177 4.177 0 0 1 7.114-3.807 8.374 8.374 0 0 0 2.651-1.013 4.191 4.191 0 0 1-1.836 2.309 8.326 8.326 0 0 0 2.4-.657 8.485 8.485 0 0 1-2.082 2.162zm0 0" transform="translate(-164 -42.276)" style="fill:#fff"/>
</svg>
