<svg xmlns="http://www.w3.org/2000/svg" width="884.048" height="485.009">
    <defs>
        <style>
            .cls-1{opacity:.28}.cls-2{fill:#d8d8d8}.cls-3{fill:#455a64}.cls-4{fill:#ff725e}.cls-5{fill:#204c20}.cls-6{fill:#393}.cls-7,.cls-8{fill:#263238}.cls-8{opacity:.15}.cls-9{fill:#cd877b}.cls-11{fill:#407bff}.cls-12{opacity:.1}.cls-13{fill:#1d2c4a}.cls-14{fill:#2a3349}.cls-15{fill:#b76f64}.cls-16,.cls-19{opacity:.3}.cls-17{fill:#7f3e3b}.cls-19{fill:#fff}.cls-20{opacity:.2}.cls-21{fill:#2c6bdb}.cls-22{fill:#fafafa;opacity:.4}
        </style>
    </defs>
    <g id="two_men" data-name="two men" transform="translate(-1445.42 406.006)">
        <g id="grass_shadow" data-name="grass shadow" class="cls-1" transform="translate(-22.098 -48.505)">
            <path id="Path_52029" data-name="Path 52029" class="cls-2" d="M1779.877-188.124c-15.916 8.244-28.122 22.44-36.9 38.07s-14.434 32.781-20.036 49.808l-4.9 87.817c18.521-31.507 33.386-68.547 37.4-104.872l-12.325-1.1c8.265-1.261 15.2-7.249 19.613-14.347s6.685-15.287 8.9-23.346q-7.518 1.116-15.036 2.235a55.735 55.735 0 0 0 23.284-34.265z" transform="translate(23.188 93.212)"/>
            <path id="Path_52030" data-name="Path 52030" class="cls-2" d="M1779.877-188.124c-15.916 8.244-28.122 22.44-36.9 38.07s-14.434 32.781-20.036 49.808l-4.9 87.817c18.521-31.507 33.386-68.547 37.4-104.872l-12.325-1.1c8.265-1.261 15.2-7.249 19.613-14.347s6.685-15.287 8.9-23.346q-7.518 1.116-15.036 2.235a55.735 55.735 0 0 0 23.284-34.265z" transform="translate(23.188 93.212)"/>
            <path id="Path_52031" data-name="Path 52031" class="cls-2" d="M1779.877-188.124c-15.916 8.244-28.122 22.44-36.9 38.07s-14.434 32.781-20.036 49.808l-4.9 87.817c18.521-31.507 33.386-68.547 37.4-104.872l-12.325-1.1c8.265-1.261 15.2-7.249 19.613-14.347s6.685-15.287 8.9-23.346q-7.518 1.116-15.036 2.235a55.735 55.735 0 0 0 23.284-34.265z" transform="translate(23.188 93.212)"/>
            <path id="Path_52032" data-name="Path 52032" class="cls-2" d="M1734.8 11.478s-40.2-48.114-39.735-94.045h16.239s-17.638-11.6-16.243-18.094 1.859-31.086 1.859-31.086l14.847 3.712s-11.135-5.567-12.527-14.382 3.247-49.644 3.247-49.644 18.094 19.021 23.662 38.509 20.182 42.219 15.89 101.606-7.239 63.424-7.239 63.424z" transform="translate(3.684 89.881)"/>
            <path id="Path_52033" data-name="Path 52033" class="cls-2" d="M1716.205-10.453s43.8-28.64 53.788-65.586l-13.025-3.661s16.765-5.324 17.11-10.849 5.523-25.353 5.523-25.353l-12.747-.373s10.188-1.953 13.293-8.709 8.595-40.551 8.595-40.551-18.8 11.176-27.666 25.548-25.714 29.31-35.672 77.911-9.199 51.623-9.199 51.623z" transform="translate(21.625 112.32)"/>
            <path id="Path_52034" data-name="Path 52034" class="cls-2" d="M1716.564-10.006s43.552-29.013 53.227-66.042l-13.055-3.552s16.719-5.466 17.018-10.993 5.305-25.4 5.305-25.4l-12.749-.264s10.17-2.04 13.217-8.824 8.252-40.623 8.252-40.623-18.709 11.334-27.449 25.783-25.462 29.528-35.005 78.214-8.761 51.701-8.761 51.701z" transform="translate(21.926 112.18)"/>
            <path id="Path_52035" data-name="Path 52035" class="cls-2" d="M1705-169.337a2.353 2.353 0 0 1 .15.5l.356 1.479c.307 1.362.736 3.275 1.285 5.708.561 2.479 1.213 5.518 1.918 9.058s1.554 7.559 2.372 12.028c1.726 8.92 3.546 19.586 5.419 31.452a1108.257 1108.257 0 0 1 5.235 38.729 1101.97 1101.97 0 0 1 3.74 38.911c.885 11.982 1.477 20.291 1.49 21.687 0 .631-.007 1.132-.01 1.521a2.252 2.252 0 0 1-.031.519 2.327 2.327 0 0 1-.055-.517l-.078-1.519c-.052-1.394-1.18-9.658-2.106-21.628a1251.37 1251.37 0 0 0-3.8-38.875 1237.868 1237.868 0 0 0-5.165-38.708c-1.83-11.864-3.585-22.532-5.234-31.461-.779-4.473-1.574-8.5-2.246-12.047s-1.263-6.594-1.774-9.082c-.48-2.448-.856-4.369-1.126-5.739-.113-.62-.2-1.113-.272-1.5a2.281 2.281 0 0 1-.068-.516z" transform="translate(12.154 109.106)"/>
            <path id="Path_52036" data-name="Path 52036" class="cls-2" d="M1754.1-29.964s-36.79-41.736-48.211-66.972l8.623-3.685c-6.25 1.032-12.654-1.654-17.5-5.734s-8.406-9.444-11.9-14.731l11.358-1.92a42.231 42.231 0 0 1-24.819-19.226c13.405 2.2 25.532 9.568 35.526 18.77 8.093 7.452 14.945 16.1 21.526 24.943a84.934 84.934 0 0 1 8.36 13.745c6.185 12.774 17.056 39.481 17.037 54.81z" transform="translate(-16.053 132.037)"/>
            <path id="Path_52037" data-name="Path 52037" class="cls-2" d="M1756.417-31.508s-38.475-40.191-50.926-64.931l8.464-4.035c-6.2 1.287-12.711-1.133-17.721-5.01s-8.787-9.09-12.492-14.229l11.272-2.385a42.24 42.24 0 0 1-25.591-18.188c13.485 1.65 25.9 8.508 36.268 17.291 8.392 7.113 15.6 15.475 22.536 24.035a84.855 84.855 0 0 1 8.918 13.389c6.701 12.514 18.662 38.747 19.272 54.063z" transform="translate(-17.942 133.682)"/>
        </g>
        <g id="grass">
            <path id="Path_52029-2" data-name="Path 52029" class="cls-3" d="M1762.676-188.124c-11.489 5.951-20.3 16.2-26.634 27.48s-10.419 23.663-14.463 35.954l-3.539 63.39c13.369-22.743 24.1-49.48 27-75.7l-8.9-.793c5.966-.91 10.972-5.233 14.158-10.356s4.825-11.035 6.426-16.852l-10.853 1.614a40.233 40.233 0 0 0 16.805-24.737z" transform="translate(-1.776 91.19)"/>
            <path id="Path_52030-2" data-name="Path 52030" class="cls-4" d="M1762.676-188.124c-11.489 5.951-20.3 16.2-26.634 27.48s-10.419 23.663-14.463 35.954l-3.539 63.39c13.369-22.743 24.1-49.48 27-75.7l-8.9-.793c5.966-.91 10.972-5.233 14.158-10.356s4.825-11.035 6.426-16.852l-10.853 1.614a40.233 40.233 0 0 0 16.805-24.737z" transform="translate(-1.776 91.19)"/>
            <path id="Path_52031-2" data-name="Path 52031" class="cls-5" d="M1762.676-188.124c-11.489 5.951-20.3 16.2-26.634 27.48s-10.419 23.663-14.463 35.954l-3.539 63.39c13.369-22.743 24.1-49.48 27-75.7l-8.9-.793c5.966-.91 10.972-5.233 14.158-10.356s4.825-11.035 6.426-16.852l-10.853 1.614a40.233 40.233 0 0 0 16.805-24.737z" transform="translate(-1.776 91.19)"/>
            <path id="Path_52032-2" data-name="Path 52032" class="cls-6" d="M1723.727-45.138s-29.017-34.73-28.682-67.886h11.722s-12.732-8.373-11.725-13.061 1.342-22.439 1.342-22.439l10.717 2.68s-8.038-4.019-9.042-10.382 2.344-35.835 2.344-35.835 13.061 13.73 17.08 27.8 14.568 30.476 11.47 73.344-5.226 45.779-5.226 45.779z" transform="translate(-9.442 89.881)"/>
            <path id="Path_52033-2" data-name="Path 52033" class="cls-5" d="M1716.2-53.591s31.614-20.674 38.827-47.343l-9.4-2.645s12.1-3.843 12.351-7.831 3.987-18.3 3.987-18.3l-9.2-.269s7.354-1.41 9.6-6.287 6.2-29.271 6.2-29.271-13.574 8.067-19.97 18.442-18.562 21.158-25.75 56.24-6.645 37.264-6.645 37.264z" transform="translate(-2.39 98.7)"/>
            <path id="Path_52034-2" data-name="Path 52034" class="cls-6" d="M1716.56-53.314s31.438-20.943 38.422-47.672l-9.424-2.565s12.069-3.946 12.284-7.935 3.83-18.334 3.83-18.334l-9.2-.191s7.341-1.472 9.541-6.369 5.956-29.323 5.956-29.323-13.5 8.182-19.814 18.611-18.379 21.315-25.268 56.458-6.327 37.32-6.327 37.32z" transform="translate(-2.272 98.645)"/>
            <path id="Path_52035-2" data-name="Path 52035" class="cls-7" d="M1705-169.337a1.688 1.688 0 0 1 .108.36l.257 1.067.927 4.12c.405 1.79.875 3.983 1.385 6.539s1.122 5.457 1.712 8.683c1.246 6.439 2.56 14.138 3.912 22.7a801.019 801.019 0 0 1 3.779 27.956 799.89 799.89 0 0 1 2.7 28.088c.638 8.649 1.066 14.647 1.075 15.654 0 .456-.005.817-.007 1.1a1.632 1.632 0 0 1-.023.374 1.684 1.684 0 0 1-.04-.373l-.056-1.1c-.037-1.006-.852-6.972-1.521-15.612a896.342 896.342 0 0 0-2.746-28.061 893.043 893.043 0 0 0-3.728-27.941c-1.321-8.564-2.588-16.265-3.778-22.71-.562-3.229-1.136-6.138-1.622-8.7s-.911-4.76-1.281-6.556l-.813-4.143c-.081-.448-.146-.8-.2-1.081a1.657 1.657 0 0 1-.04-.364z" transform="translate(-6.113 97.437)"/>
            <path id="Path_52036-2" data-name="Path 52036" class="cls-5" d="M1731.165-61.192s-26.554-30.129-34.8-48.343l6.224-2.66c-4.512.745-9.134-1.194-12.632-4.139s-6.068-6.817-8.587-10.633l8.2-1.386a30.485 30.485 0 0 1-17.915-13.878c9.677 1.591 18.43 6.906 25.644 13.549a127.6 127.6 0 0 1 15.538 18 61.308 61.308 0 0 1 6.035 9.922c4.462 9.228 12.309 28.503 12.293 39.568z" transform="translate(-17.199 106.45)"/>
            <path id="Path_52037-2" data-name="Path 52037" class="cls-6" d="M1732.219-61.765s-27.773-29.011-36.761-46.87l6.109-2.913c-4.477.929-9.176-.818-12.792-3.616s-6.343-6.561-9.017-10.271l8.137-1.722a30.491 30.491 0 0 1-18.473-13.129c9.734 1.191 18.7 6.142 26.18 12.482a127.714 127.714 0 0 1 16.267 17.349 61.249 61.249 0 0 1 6.437 9.665c4.839 9.033 13.472 27.969 13.913 39.025z" transform="translate(-17.942 107.097)"/>
        </g>
        <g id="left" transform="translate(1465.253 -403.761)">
            <path id="Path_51927" data-name="Path 51927" class="cls-8" d="M1828.72-53.707c0 3.153-81.365 5.708-181.734 5.708s-181.734-2.556-181.734-5.708 81.365-5.707 181.734-5.707 181.734 2.556 181.734 5.707z" transform="translate(-1465.253 510.929)"/>
            <path id="Path_51928" data-name="Path 51928" class="cls-9" d="M1592.808-278.66c-1.147 2.566-2.423 5.436-3.537 8.2-1.126 2.8-2.256 5.6-3.264 8.427a118.652 118.652 0 0 0-4.962 16.932l-.382 2.088-.132.793c-.041.216-.045.512-.075.765a28.3 28.3 0 0 0 .08 3.828c.246 2.766.689 5.721 1.246 8.684 1.106 5.929 2.509 12.046 3.9 18.058l-6.716 2.655a121.409 121.409 0 0 1-7.98-17.8 74.05 74.05 0 0 1-2.768-9.771 34.8 34.8 0 0 1-.739-5.577c-.008-.533-.038-1.025-.014-1.6s.046-1.184.093-1.555l.257-2.592a85.708 85.708 0 0 1 1.8-10.018c.737-3.272 1.681-6.449 2.683-9.591s2.129-6.227 3.368-9.263a155.972 155.972 0 0 1 1.917-4.532 85.055 85.055 0 0 1 2.143-4.561z" transform="translate(-1433.652 441.151)"/>
            <path id="Path_51929" data-name="Path 51929" class="cls-9" d="m1582.95-229.751 5.109 4.984-11.139 5.182s-2.705-4.72-.838-8.988z" transform="translate(-1431.187 458.26)"/>
            <path id="Path_51930" data-name="Path 51930" class="cls-9" d="m1591.821-218.522-9.407 3.852-5.847-6.092 11.139-5.182z" transform="translate(-1430.834 459.437)"/>
            <path id="Path_51931" data-name="Path 51931" class="cls-7" d="M1614.484-315.561c0 .776.41 1.4.916 1.406s.919-.628.919-1.4-.41-1.406-.916-1.406-.919.625-.919 1.4z" transform="translate(-1419.11 431.293)"/>
            <path id="Path_51932" data-name="Path 51932" d="M1614.743-314.819s1.761 4.478 3.7 6.639c-1.373 1.279-3.706.691-3.706.691z" transform="translate(-1419.031 431.956)" style="fill:#c15854"/>
            <path id="Path_51933" data-name="Path 51933" class="cls-7" d="M1612.495-318.766a.455.455 0 0 1-.371-.19.455.455 0 0 1 .1-.636 4.513 4.513 0 0 1 4.1-.7.454.454 0 0 1 .26.589.455.455 0 0 1-.588.261 3.609 3.609 0 0 0-3.239.592.454.454 0 0 1-.262.084z" transform="translate(-1419.866 430.198)"/>
            <path id="Path_51934" data-name="Path 51934" class="cls-9" d="M1594.77-311.424c1.38 7.037 2.756 19.929-2.167 24.624 0 0 1.925 7.138 15 7.138 14.376 0 6.869-7.136 6.869-7.136-7.846-1.875-7.643-7.7-6.276-13.163z" transform="translate(-1425.876 433.006)"/>
            <g id="Group_11000" data-name="Group 11000" transform="translate(159.782 139.727)">
                <path id="Path_51935" data-name="Path 51935" class="cls-11" d="M1588.366-287.406c1.553-2.423-1.068-8.293-1.068-8.293s23.158-5.827 32.62 3.109c1.964 1.855-.217 4.574-.217 4.574z" transform="translate(-1587.298 297.565)"/>
                <path id="Path_51936" data-name="Path 51936" class="cls-12" d="M1588.366-287.406c1.553-2.423-1.068-8.293-1.068-8.293s23.158-5.827 32.62 3.109c1.964 1.855-.217 4.574-.217 4.574z" transform="translate(-1587.298 297.565)"/>
            </g>
            <path id="Path_51937" data-name="Path 51937" class="cls-11" d="M1559.755-85.02c-1.22 0-3.168-2.037-3.742-2.8a.227.227 0 0 1-.018-.247.25.25 0 0 1 .219-.118c.136.012 3.345.288 4.22 1.434a1.056 1.056 0 0 1 .217.864.932.932 0 0 1-.679.842 1.052 1.052 0 0 1-.217.025zm-3.031-2.646c.958 1.1 2.484 2.337 3.143 2.18.063-.016.256-.062.335-.482a.61.61 0 0 0-.131-.5c-.519-.686-2.271-1.053-3.347-1.198z" transform="translate(-1437.204 502.034)"/>
            <path id="Path_51938" data-name="Path 51938" class="cls-11" d="M1556.86-87.2a3.9 3.9 0 0 1-.708-.055.228.228 0 0 1-.174-.154.228.228 0 0 1 .052-.226c.082-.086 2.017-2.086 3.46-2.086a1.251 1.251 0 0 1 .936.389.743.743 0 0 1 .182.922c-.431.793-2.439 1.21-3.748 1.21zm-.16-.454c1.236.048 3.2-.407 3.51-.975.028-.051.094-.173-.113-.389a.791.791 0 0 0-.606-.246c-.865 0-2.102.973-2.791 1.61z" transform="translate(-1437.204 501.558)"/>
            <path id="Path_51939" data-name="Path 51939" class="cls-11" d="M1625.59-62.525a17.066 17.066 0 0 1-2.95-.27.232.232 0 0 1-.181-.187.227.227 0 0 1 .111-.234c.141-.082 3.5-2 5.1-1.562a1.134 1.134 0 0 1 .723.533.862.862 0 0 1 .02 1c-.396.545-1.588.72-2.823.72zm-2.214-.609c1.788.254 4.221.238 4.671-.382.058-.081.115-.22-.046-.5a.683.683 0 0 0-.447-.318c-.982-.276-3.003.598-4.178 1.2z" transform="translate(-1416.645 509.25)"/>
            <path id="Path_51940" data-name="Path 51940" class="cls-11" d="M1622.685-62.249a.226.226 0 0 1-.133-.042.227.227 0 0 1-.093-.207c.01-.11.27-2.7 1.492-3.705a1.661 1.661 0 0 1 1.263-.39c.626.063.806.381.848.635.175 1.089-2.124 3.168-3.285 3.691a.231.231 0 0 1-.092.018zm2.346-3.9a1.206 1.206 0 0 0-.791.3 5.336 5.336 0 0 0-1.27 2.964c1.185-.712 2.748-2.346 2.642-3-.008-.052-.034-.213-.444-.255a1.552 1.552 0 0 0-.137-.006z" transform="translate(-1416.645 508.707)"/>
            <path id="Path_51941" data-name="Path 51941" class="cls-13" d="M1575.914-166.085a16.331 16.331 0 0 0 8 1.745 11.2 11.2 0 0 0 5.7-1.8l9.724-6.265c6.49-4.155 12.91-8.4 19.36-12.623 3.162-2.07 6.292-4.15 9.434-6.262 3.272-2.173 6.526-4.374 9.814-6.549 6.363-4.341 12.761-8.625 19.084-13.037q19.055-13.11 37.772-26.747 3.82-2.775 7.62-5.586a12.412 12.412 0 0 0 2.965-16.886l-.178-.266a12.413 12.413 0 0 0-16.315-3.937q-4.14 2.286-8.275 4.6-20.2 11.312-40.037 23.2c-6.64 3.913-13.2 7.955-19.8 11.94-3.188 1.981-6.378 3.93-9.581 5.911a978.31 978.31 0 0 0-10.075 6.258c-6.529 4.083-13.058 8.168-19.545 12.339l-9.73 6.217a11.354 11.354 0 0 0-4.026 4.445 16.334 16.334 0 0 0-1.73 7.994 17.115 17.115 0 0 0 9.819 15.309z" transform="translate(-1434.076 447.097)"/>
            <path id="Path_51942" data-name="Path 51942" class="cls-9" d="M1614.553-58.19h9.618l.958-22.273h-9.618z" transform="translate(-1419.089 504.421)"/>
            <path id="Path_51943" data-name="Path 51943" class="cls-9" d="m1549.1-89.113 8.044 5.272 17.752-15-8.045-5.272z" transform="translate(-1439.328 497.109)"/>
            <path id="Path_51944" data-name="Path 51944" class="cls-7" d="m1560.23-87.352-8.358-6.847a.839.839 0 0 0-1.05-.012l-6.888 5.408a1.415 1.415 0 0 0 .005 2.216c2.959 2.34 4.517 3.331 8.192 6.342 2.261 1.854 7.884 7.5 11.007 10.061 3.054 2.5 6.06-.2 5.011-1.523-4.705-5.95-6.6-11.046-7.087-14.2a2.338 2.338 0 0 0-.832-1.445z" transform="translate(-1441.089 500.115)"/>
            <path id="Path_51945" data-name="Path 51945" class="cls-7" d="M1624.982-64.3h-10.5a.841.841 0 0 0-.82.657l-1.9 8.549a1.4 1.4 0 0 0 1.384 1.71c3.789-.064 9.264-.285 14.027-.285 5.568 0 10.377.3 16.907.3 3.947 0 5.044-3.992 3.391-4.354-7.524-1.646-13.667-1.821-20.17-5.831a4.456 4.456 0 0 0-2.319-.746z" transform="translate(-1419.963 509.418)"/>
            <path id="Path_51946" data-name="Path 51946" class="cls-7" d="M1581.2-290.163c-8.342 3.993-13.04 30.237-13.04 30.237l20.386 8.138a152.289 152.289 0 0 0 7.208-22.458c2.746-12.145-6.022-20-14.554-15.917z" transform="translate(-1433.433 439.243)"/>
            <path id="Path_51947" data-name="Path 51947" class="cls-14" d="M1588.355-278.851c-5.04 5.106-7.344 15.108-8.353 21.615l4.883 1.951a152.751 152.751 0 0 0 7.07-21.8c-.432-2.774-1.505-3.887-3.6-1.766z" transform="translate(-1429.772 442.736)"/>
            <path id="Path_51948" data-name="Path 51948" class="cls-7" d="M1633.332-289.871s10.237 11.563.57 83.132h-51.443c-.355-7.9 4.607-46.419-3.009-83.627a134.084 134.084 0 0 1 17.22-2.175 188.767 188.767 0 0 1 21.868 0 96.583 96.583 0 0 1 14.794 2.67z" transform="translate(-1429.943 438.746)"/>
            <path id="Path_51949" data-name="Path 51949" class="cls-14" d="m1626.74-265.834-8.667-14.938c-1.676 8.183-2.388 13.243-2.035 21.307.236 5.132 4.941 24.135 9.144 26.911a302.214 302.214 0 0 0 1.558-33.28z" transform="translate(-1418.656 442.484)"/>
            <path id="Path_51950" data-name="Path 51950" class="cls-9" d="M1628.5-282.773c1.28 6.365 2.633 12.879 4.023 19.278s2.849 12.8 4.539 19c.438 1.525.843 3.091 1.325 4.567l.35 1.123.174.562a.632.632 0 0 1-.06-.068c-.1-.114-.2-.126-.126-.007a4.481 4.481 0 0 0 2 1.237 23.855 23.855 0 0 0 3.81 1.068c5.682 1.081 12.373 1.237 18.723 1.219l1.245 7.113c-1.758.56-3.4.973-5.122 1.371-1.706.4-3.429.75-5.179 1.015a55.674 55.674 0 0 1-10.9.732 30.008 30.008 0 0 1-6.024-.783 17.579 17.579 0 0 1-6.9-3.2 12.517 12.517 0 0 1-3.231-3.892c-.215-.386-.4-.837-.564-1.214l-.242-.619-.484-1.24c-.669-1.66-1.22-3.3-1.82-4.945-2.218-6.581-4.053-13.15-5.686-19.748-1.605-6.619-3.012-13.18-4.181-19.948z" transform="translate(-1419.212 441.865)"/>
            <path id="Path_51951" data-name="Path 51951" class="cls-7" d="M1610.89-283.424c-2.709 8.786 8.28 34.977 8.28 34.977l21.882-5.5s-.841-13.607-5.825-24.408c-7.521-16.296-21.084-15.616-24.337-5.069z" transform="translate(-1420.354 439.314)"/>
            <path id="Path_51952" data-name="Path 51952" class="cls-9" d="m1653.03-246.059 10.891-.268-5.238 11.327s-4.43.589-8.071-5.4l-3.84-4.572 4.416-.886a10.75 10.75 0 0 1 1.842-.201z" transform="translate(-1409.126 453.135)"/>
            <path id="Path_51953" data-name="Path 51953" class="cls-9" d="m1667.984-244.22-6.236 9.389-5.878-.169 5.238-11.328z" transform="translate(-1406.313 453.134)"/>
            <g id="Group_11001" data-name="Group 11001" transform="translate(118.36 393.004)">
                <path id="Path_51954" data-name="Path 51954" class="cls-15" d="m1625.018-80.458-.492 11.481h-9.626l.492-11.481z" transform="translate(-1537.34 111.419)"/>
                <path id="Path_51955" data-name="Path 51955" class="cls-15" d="m1564.813-104.107 8.048 5.274-9.154 7.727-8.048-5.274z" transform="translate(-1555.659 104.107)"/>
            </g>
            <path id="Path_51956" data-name="Path 51956" class="cls-9" d="M1594.727-313.863c.577 9.528.431 15.134 5.238 20.028 7.232 7.363 19 3.01 21.277-6.5 2.054-8.558.766-22.7-8.557-26.5a13.019 13.019 0 0 0-17.958 12.972z" transform="translate(-1425.227 427.929)"/>
            <path id="Path_51957" data-name="Path 51957" class="cls-7" d="M1586.232-312.995c2.369 8.687 7.948 18.693 15.158 19.328 8.96.789 13-8.467 14.183-18.03 5.372-3.678 2.549-7.716 7.937-8.231 6.906-.659 4.7-13.3-4.4-15.336 0 0 3.048 5.7-3.35 2.823a36.932 36.932 0 0 0-19.557-3.392s8.16 4.078.179 5.9-10.369 6.749-6.7 9.722c.001-.003-5.009 1.496-3.45 7.216z" transform="translate(-1427.939 425.397)"/>
            <path id="Path_51958" data-name="Path 51958" class="cls-9" d="M1604.405-315a10.784 10.784 0 0 0 2.7 6.378c2.1 2.309 4.285.872 4.656-1.943.334-2.532-.355-6.786-2.918-8.058-2.524-1.26-4.609.764-4.438 3.623z" transform="translate(-1422.229 430.661)"/>
            <g id="Group_11002" data-name="Group 11002" transform="translate(116.073 232.007)">
                <path id="Path_51959" data-name="Path 51959" class="cls-11" d="M1623.55-227.079s9.375 67.884 1.989 95.08c-11.7 43.076-56.456 79.43-56.456 79.43l-15.171-9.943s38.108-30.7 42.773-66.754c4.192-32.387-6.33-71.539-6.33-97.812z" transform="translate(-1553.912 227.079)"/>
                <path id="Path_51960" data-name="Path 51960" class="cls-12" d="M1623.55-227.079s9.375 67.884 1.989 95.08c-11.7 43.076-56.456 79.43-56.456 79.43l-15.171-9.943s38.108-30.7 42.773-66.754c4.192-32.387-6.33-71.539-6.33-97.812z" transform="translate(-1553.912 227.079)"/>
            </g>
            <g id="Group_11003" data-name="Group 11003" transform="translate(181.376 262.953)">
                <path id="Path_51961" data-name="Path 51961" class="cls-11" d="M1612-195.561a63.371 63.371 0 0 0-8.209-7.881c1.6 22.034 2.906 54.672 1.453 77.859a100.051 100.051 0 0 0 4.87-13.72c3.602-13.276 3.222-36.227 1.886-56.258z" transform="translate(-1603.792 203.442)"/>
                <path id="Path_51962" data-name="Path 51962" class="cls-16" d="M1612-195.561a63.371 63.371 0 0 0-8.209-7.881c1.6 22.034 2.906 54.672 1.453 77.859a100.051 100.051 0 0 0 4.87-13.72c3.602-13.276 3.222-36.227 1.886-56.258z" transform="translate(-1603.792 203.442)"/>
            </g>
            <g id="Group_11004" data-name="Group 11004" transform="translate(114.91 391.809)">
                <path id="Path_51963" data-name="Path 51963" class="cls-11" d="M1575.474-93.693c.063.041-5.873 3.869-5.873 3.869l-16.577-10.864 5.167-4.331z" transform="translate(-1553.024 105.019)"/>
                <path id="Path_51964" data-name="Path 51964" class="cls-16" d="M1575.474-93.693c.063.041-5.873 3.869-5.873 3.869l-16.577-10.864 5.167-4.331z" transform="translate(-1553.024 105.019)"/>
            </g>
            <g id="Group_11005" data-name="Group 11005" transform="translate(170.143 232.007)">
                <path id="Path_51965" data-name="Path 51965" class="cls-11" d="M1629.028-227.079s14.488 61.4 15.508 90.733c1.143 32.894-10.336 110.481-10.336 110.481h-16.293s-2.006-78.191-2.731-108.152c-.789-32.663-19.963-93.062-19.963-93.062z" transform="translate(-1595.212 227.079)"/>
                <path id="Path_51966" data-name="Path 51966" class="cls-12" d="M1629.028-227.079s14.488 61.4 15.508 90.733c1.143 32.894-10.336 110.481-10.336 110.481h-16.293s-2.006-78.191-2.731-108.152c-.789-32.663-19.963-93.062-19.963-93.062z" transform="translate(-1595.212 227.079)"/>
            </g>
            <g id="Group_11006" data-name="Group 11006" transform="translate(190.991 426.732)">
                <path id="Path_51967" data-name="Path 51967" class="cls-11" d="M1632.411-78.344c.075 0-.919 6.763-.919 6.763h-19.82l-.536-6.037z" transform="translate(-1611.136 78.344)"/>
                <path id="Path_51968" data-name="Path 51968" class="cls-16" d="M1632.411-78.344c.075 0-.919 6.763-.919 6.763h-19.82l-.536-6.037z" transform="translate(-1611.136 78.344)"/>
            </g>
            <g id="Group_11007" data-name="Group 11007" transform="translate(252.181)">
                <path id="Path_51358" data-name="Path 51358" class="cls-13" d="M1782.084-389.555a14.74 14.74 0 0 1-14.735 14.746h-.005a80.128 80.128 0 0 0-80.008 80 80.129 80.129 0 0 0 80.008 80 80.129 80.129 0 0 0 80.015-80 14.745 14.745 0 0 1 14.746-14.74 14.735 14.735 0 0 1 14.735 14.735v.01a109.485 109.485 0 0 1-109.48 109.48 109.485 109.485 0 0 1-109.485-109.48 109.485 109.485 0 0 1 109.485-109.485 14.736 14.736 0 0 1 14.74 14.73v.012z" transform="translate(-1657.874 404.291)"/>
            </g>
        </g>
        <g id="grass_shadow-2" data-name="grass shadow" class="cls-1" transform="translate(360.141 -31.789)">
            <path id="Path_52029-3" data-name="Path 52029" class="cls-2" d="M1765.432-188.124c-12.2 6.318-21.553 17.2-28.278 29.177s-11.062 25.124-15.356 38.173l-3.758 67.3c14.194-24.147 25.588-52.535 28.666-80.375l-9.447-.842c6.334-.966 11.649-5.556 15.032-11s5.123-11.716 6.822-17.893l-11.523 1.713a42.717 42.717 0 0 0 17.842-26.253z" transform="translate(2.224 91.514)"/>
            <path id="Path_52030-3" data-name="Path 52030" class="cls-2" d="M1765.432-188.124c-12.2 6.318-21.553 17.2-28.278 29.177s-11.062 25.124-15.356 38.173l-3.758 67.3c14.194-24.147 25.588-52.535 28.666-80.375l-9.447-.842c6.334-.966 11.649-5.556 15.032-11s5.123-11.716 6.822-17.893l-11.523 1.713a42.717 42.717 0 0 0 17.842-26.253z" transform="translate(2.224 91.514)"/>
            <path id="Path_52031-3" data-name="Path 52031" class="cls-2" d="M1765.432-188.124c-12.2 6.318-21.553 17.2-28.278 29.177s-11.062 25.124-15.356 38.173l-3.758 67.3c14.194-24.147 25.588-52.535 28.666-80.375l-9.447-.842c6.334-.966 11.649-5.556 15.032-11s5.123-11.716 6.822-17.893l-11.523 1.713a42.717 42.717 0 0 0 17.842-26.253z" transform="translate(2.224 91.514)"/>
            <path id="Path_52032-3" data-name="Path 52032" class="cls-2" d="M1725.5-36.068s-30.808-36.875-30.453-72.077h12.446s-13.518-8.89-12.449-13.868 1.425-23.825 1.425-23.825l11.379 2.845s-8.534-4.267-9.6-11.023 2.489-38.048 2.489-38.048 13.867 14.578 18.135 29.514 15.468 32.357 12.178 77.872-5.55 48.61-5.55 48.61z" transform="translate(-7.339 89.881)"/>
            <path id="Path_52033-3" data-name="Path 52033" class="cls-2" d="M1716.2-46.68s33.566-21.95 41.224-50.266l-9.983-2.808s12.849-4.08 13.114-8.315 4.233-19.431 4.233-19.431l-9.769-.286s7.808-1.5 10.188-6.675 6.587-31.078 6.587-31.078-14.412 8.565-21.2 19.58-19.708 22.464-27.339 59.712-7.055 39.567-7.055 39.567z" transform="translate(1.457 100.882)"/>
            <path id="Path_52034-3" data-name="Path 52034" class="cls-2" d="M1716.56-46.375s33.379-22.236 40.794-50.615l-10.005-2.723s12.814-4.189 13.043-8.425 4.066-19.466 4.066-19.466l-9.771-.2s7.794-1.563 10.13-6.763 6.324-31.134 6.324-31.134-14.339 8.687-21.037 19.76-19.514 22.629-26.829 59.941-6.715 39.625-6.715 39.625z" transform="translate(1.605 100.814)"/>
            <path id="Path_52035-3" data-name="Path 52035" class="cls-2" d="M1705-169.337a1.8 1.8 0 0 1 .115.382c.071.29.16.665.273 1.133.235 1.044.564 2.51.985 4.374.43 1.9.929 4.229 1.47 6.942s1.191 5.794 1.818 9.219c1.323 6.836 2.718 15.011 4.153 24.1a848.07 848.07 0 0 1 4.012 29.682 847.378 847.378 0 0 1 2.866 29.822c.678 9.183 1.132 15.551 1.142 16.621 0 .484-.006.867-.007 1.166a1.736 1.736 0 0 1-.024.4 1.781 1.781 0 0 1-.042-.4l-.059-1.164c-.04-1.068-.9-7.4-1.614-16.576a949.204 949.204 0 0 0-2.916-29.794 942.978 942.978 0 0 0-3.958-29.666c-1.4-9.093-2.747-17.269-4.011-24.112-.6-3.428-1.207-6.516-1.722-9.233s-.968-5.054-1.359-6.961l-.863-4.4c-.086-.475-.156-.853-.208-1.147a1.74 1.74 0 0 1-.051-.388z" transform="translate(-3.186 99.307)"/>
            <path id="Path_52036-3" data-name="Path 52036" class="cls-2" d="M1734.839-56.189s-28.194-31.989-36.947-51.328l6.609-2.824c-4.79.791-9.7-1.268-13.412-4.394s-6.443-7.238-9.117-11.29l8.7-1.471a32.366 32.366 0 0 1-19.021-14.735c10.274 1.689 19.568 7.333 27.227 14.385 6.2 5.711 11.454 12.341 16.5 19.116a65.115 65.115 0 0 1 6.408 10.534c4.738 9.796 13.07 30.259 13.053 42.007z" transform="translate(-17.016 110.549)"/>
            <path id="Path_52037-3" data-name="Path 52037" class="cls-2" d="M1736.1-56.918s-29.488-30.8-39.031-49.763l6.487-3.093c-4.754.986-9.742-.869-13.582-3.84s-6.734-6.966-9.574-10.905l8.639-1.828a32.373 32.373 0 0 1-19.613-13.94c10.335 1.265 19.853 6.521 27.8 13.252 6.432 5.451 11.953 11.86 17.272 18.42a65.041 65.041 0 0 1 6.835 10.261c5.128 9.593 14.295 29.698 14.767 41.436z" transform="translate(-17.942 111.356)"/>
        </g>
        <g id="grass-2" data-name="grass" transform="translate(381.591 13.197)">
            <path id="Path_52029-4" data-name="Path 52029" class="cls-3" d="M1748.736-188.124c-7.9 4.092-13.96 11.139-18.316 18.9s-7.165 16.272-9.946 24.725l-2.434 43.592c9.194-15.64 16.573-34.027 18.567-52.058l-6.118-.545c4.1-.626 7.545-3.6 9.736-7.122s3.318-7.588 4.418-11.589l-7.464 1.11a27.667 27.667 0 0 0 11.557-17.013z" transform="translate(-22.009 89.551)"/>
            <path id="Path_52030-4" data-name="Path 52030" class="cls-4" d="M1748.736-188.124c-7.9 4.092-13.96 11.139-18.316 18.9s-7.165 16.272-9.946 24.725l-2.434 43.592c9.194-15.64 16.573-34.027 18.567-52.058l-6.118-.545c4.1-.626 7.545-3.6 9.736-7.122s3.318-7.588 4.418-11.589l-7.464 1.11a27.667 27.667 0 0 0 11.557-17.013z" transform="translate(-22.009 89.551)"/>
            <path id="Path_52031-4" data-name="Path 52031" class="cls-5" d="M1748.736-188.124c-7.9 4.092-13.96 11.139-18.316 18.9s-7.165 16.272-9.946 24.725l-2.434 43.592c9.194-15.64 16.573-34.027 18.567-52.058l-6.118-.545c4.1-.626 7.545-3.6 9.736-7.122s3.318-7.588 4.418-11.589l-7.464 1.11a27.667 27.667 0 0 0 11.557-17.013z" transform="translate(-22.009 89.551)"/>
            <path id="Path_52032-4" data-name="Path 52032" class="cls-6" d="M1714.751-91.025s-19.954-23.884-19.724-46.684h8.061s-8.756-5.758-8.063-8.982.923-15.431.923-15.431l7.37 1.843s-5.528-2.764-6.219-7.139 1.612-24.643 1.612-24.643 8.982 9.442 11.746 19.116 10.019 20.958 7.888 50.437-3.594 31.483-3.594 31.483z" transform="translate(-20.08 89.881)"/>
            <path id="Path_52033-4" data-name="Path 52033" class="cls-5" d="M1716.2-88.554s21.74-14.217 26.7-32.557l-6.466-1.819s8.323-2.643 8.494-5.385 2.742-12.585 2.742-12.585l-6.328-.185s5.057-.969 6.6-4.323 4.267-20.129 4.267-20.129-9.335 5.548-13.733 12.682-12.764 14.55-17.707 38.675-4.569 25.626-4.569 25.626z" transform="translate(-21.854 87.662)"/>
            <path id="Path_52034-4" data-name="Path 52034" class="cls-6" d="M1716.557-88.415s21.619-14.4 26.422-32.783l-6.48-1.764s8.3-2.713 8.448-5.457 2.634-12.608 2.634-12.608l-6.328-.131s5.048-1.013 6.561-4.38 4.1-20.165 4.1-20.165-9.287 5.626-13.626 12.8-12.639 14.658-17.376 38.826-4.355 25.662-4.355 25.662z" transform="translate(-21.885 87.676)"/>
            <path id="Path_52035-4" data-name="Path 52035" class="cls-7" d="M1705-169.337a1.167 1.167 0 0 1 .074.247c.046.188.1.431.177.734.152.676.365 1.626.638 2.833.279 1.231.6 2.739.952 4.5s.771 3.752 1.177 5.971c.857 4.428 1.76 9.722 2.69 15.613.9 5.895 1.8 12.39 2.6 19.225.782 6.84 1.389 13.37 1.856 19.316.439 5.948.733 10.072.74 10.765v.755a1.126 1.126 0 0 1-.016.257 1.176 1.176 0 0 1-.027-.257l-.038-.754c-.026-.692-.586-4.794-1.046-10.736a616.044 616.044 0 0 0-1.889-19.3c-.8-6.83-1.685-13.321-2.564-19.215-.908-5.889-1.78-11.185-2.6-15.617-.387-2.22-.781-4.221-1.115-5.98s-.627-3.273-.881-4.508l-.559-2.849-.135-.743a1.108 1.108 0 0 1-.034-.257z" transform="translate(-20.918 87.98)"/>
            <path id="Path_52036-4" data-name="Path 52036" class="cls-5" d="M1712.579-86.5s-18.261-20.719-23.93-33.245l4.28-1.829c-3.1.512-6.281-.821-8.687-2.846a32.846 32.846 0 0 1-5.9-7.312l5.638-.953a20.964 20.964 0 0 1-12.32-9.544c6.655 1.094 12.674 4.749 17.635 9.317a87.744 87.744 0 0 1 10.685 12.382 42.157 42.157 0 0 1 4.15 6.823c3.064 6.341 8.46 19.596 8.449 27.207z" transform="translate(-18.129 85.712)"/>
            <path id="Path_52037-4" data-name="Path 52037" class="cls-6" d="M1712.606-86.289s-19.1-19.951-25.28-32.232l4.2-2c-3.079.639-6.31-.563-8.8-2.487a32.879 32.879 0 0 1-6.2-7.063l5.6-1.184a20.968 20.968 0 0 1-12.7-9.029c6.694.819 12.859 4.223 18 8.583a87.82 87.82 0 0 1 11.187 11.931 42.116 42.116 0 0 1 4.427 6.646c3.326 6.21 9.26 19.233 9.566 26.835z" transform="translate(-17.942 85.549)"/>
        </g>
        <g id="right" transform="translate(1826.074 -406.006)">
            <path id="Path_51969" data-name="Path 51969" class="cls-8" d="M2196.054-81.6c0 3.151-81.366 5.707-181.734 5.707s-181.735-2.557-181.735-5.707 81.366-5.708 181.735-5.708 181.734 2.555 181.734 5.708z" transform="translate(-1712.493 504.549)"/>
            <path id="Path_51970" data-name="Path 51970" class="cls-17" d="M1992.142-311.978c1.5 3.105 2.673 6.039 3.895 9.1 1.215 3.028 2.27 6.122 3.284 9.242a116.887 116.887 0 0 1 4.574 19.456c.138.833.2 1.715.291 2.573l.128 1.294c.02.229.044.4.059.678l.038.85a27.841 27.841 0 0 1-.512 5.922 62.819 62.819 0 0 1-2.766 9.945 108.972 108.972 0 0 1-8.329 17.744l-6.652-2.812c1.483-5.969 2.971-12.063 4.1-17.937a73.156 73.156 0 0 0 1.167-8.528 19.523 19.523 0 0 0-.076-3.506l-.14-.821-.19-1.047c-.136-.7-.228-1.39-.407-2.1a134.98 134.98 0 0 0-5.047-17.075c-1-2.851-2.1-5.679-3.2-8.512-1.091-2.8-2.321-5.7-3.438-8.321z" transform="translate(-1667.244 435.08)"/>
            <path id="Path_51971" data-name="Path 51971" class="cls-17" d="m1985.827-256.751-5.108 4.984 11.138 5.182s2.705-4.72.838-8.988z" transform="translate(-1666.689 452.157)"/>
            <path id="Path_51972" data-name="Path 51972" class="cls-17" d="m1977.575-245.522 9.407 3.852 5.847-6.092-11.139-5.182z" transform="translate(-1667.661 453.334)"/>
            <path id="Path_51973" data-name="Path 51973" class="cls-11" d="M2031.526-227.906a14.077 14.077 0 0 0-2.252-6.677A9.778 9.778 0 0 0 2025.4-238l-8.929-4.386c-5.957-2.946-11.94-5.813-17.923-8.68a844.213 844.213 0 0 0-9.23-4.386c-2.933-1.388-5.852-2.749-8.772-4.137-6.035-2.776-12.045-5.6-18.106-8.313q-18.146-8.248-36.514-16-3.766-1.579-7.528-3.141a10.7 10.7 0 0 0-13.588 4.945l-.127.244a10.694 10.694 0 0 0 4.166 14.172q3.525 2.038 7.062 4.047 17.34 9.9 34.917 19.258c5.839 3.168 11.73 6.219 17.6 9.322 3.024 1.545 6.022 3.116 9.033 4.661a755.533 755.533 0 0 0 8.68 4.451c5.931 3 11.835 6.009 17.792 8.942l8.929 4.425a9.658 9.658 0 0 0 5.053 1 14.076 14.076 0 0 0 6.677-2.265 14.745 14.745 0 0 0 6.934-14.065z" transform="translate(-1690.57 442.538)"/>
            <path id="Path_51974" data-name="Path 51974" class="cls-7" d="M1951.743-342.561c0 .776-.41 1.4-.916 1.406s-.919-.628-.919-1.4.41-1.4.917-1.4.918.619.918 1.394z" transform="translate(-1676.216 425.19)"/>
            <path id="Path_51975" data-name="Path 51975" d="M1951.925-341.819s-1.761 4.478-3.7 6.639c1.373 1.279 3.706.691 3.706.691z" transform="translate(-1676.736 425.853)" style="fill:#630f0f"/>
            <path id="Path_51976" data-name="Path 51976" class="cls-7" d="M1954.38-345.766a.454.454 0 0 0 .37-.19.454.454 0 0 0-.1-.635 4.52 4.52 0 0 0-4.1-.7.456.456 0 0 0-.259.59.457.457 0 0 0 .587.261 3.606 3.606 0 0 1 3.24.592.455.455 0 0 0 .262.082z" transform="translate(-1676.108 424.095)"/>
            <path id="Path_51977" data-name="Path 51977" class="cls-17" d="M1976.651-338.424c-1.38 7.037-2.756 19.929 2.167 24.624 0 0-1.923 7.138-15 7.138-14.376 0-6.869-7.136-6.869-7.136 7.846-1.875 7.643-7.7 6.276-13.163z" transform="translate(-1674.644 426.903)"/>
            <path id="Path_51978" data-name="Path 51978" class="cls-7" d="M1981.165-322.868c1.087.351-.334 6.822-.334 6.822s-1.794 4.517-24.078 2.94c-1.711-.12-1.057-6.33.575-7.229 5.227-2.884 20.272-3.687 23.837-2.533z" transform="translate(-1674.41 431.556)"/>
            <path id="Path_51979" data-name="Path 51979" class="cls-11" d="M2009.924-115.553c1.212-.115 2.959-2.328 3.46-3.138a.226.226 0 0 0-.007-.247.225.225 0 0 0-.228-.1c-.134.025-3.3.6-4.066 1.825a1.056 1.056 0 0 0-.134.88c.164.576.5.738.755.774a1.011 1.011 0 0 0 .22.006zm2.766-2.921c-.85 1.182-2.244 2.553-2.924 2.465-.064-.008-.262-.035-.379-.446a.612.612 0 0 1 .082-.515c.455-.73 2.165-1.257 3.222-1.503z" transform="translate(-1657.973 494.738)"/>
            <path id="Path_51980" data-name="Path 51980" class="cls-11" d="M2012.631-118.069a3.9 3.9 0 0 0 .7-.12.231.231 0 0 0 .16-.172.226.226 0 0 0-.075-.22c-.089-.077-2.2-1.885-3.64-1.749a1.25 1.25 0 0 0-.9.475.744.744 0 0 0-.094.935c.506.749 2.545.975 3.849.851zm.114-.466c-1.248.164-3.223-.1-3.583-.64-.034-.048-.111-.162.075-.4a.791.791 0 0 1 .58-.3c.922-.089 2.277.843 2.928 1.34z" transform="translate(-1658.049 494.337)"/>
            <path id="Path_51981" data-name="Path 51981" class="cls-11" d="M1941.645-89.526a16.791 16.791 0 0 0 2.951-.271.226.226 0 0 0 .179-.186.227.227 0 0 0-.111-.234c-.142-.082-3.5-2-5.1-1.562a1.135 1.135 0 0 0-.721.533.862.862 0 0 0-.02 1c.395.546 1.588.72 2.822.72zm2.215-.609c-1.79.253-4.223.24-4.671-.382-.059-.081-.116-.221.044-.5a.684.684 0 0 1 .445-.318c.985-.271 3.007.598 4.182 1.201z" transform="translate(-1679.69 503.147)"/>
            <path id="Path_51982" data-name="Path 51982" class="cls-11" d="M1943.963-89.247a.225.225 0 0 0 .132-.043.228.228 0 0 0 .094-.207c-.01-.11-.27-2.7-1.494-3.705a1.663 1.663 0 0 0-1.263-.39c-.626.063-.806.381-.848.636-.176 1.088 2.125 3.168 3.285 3.688a.216.216 0 0 0 .094.021zm-2.347-3.9a1.211 1.211 0 0 1 .791.3 5.339 5.339 0 0 1 1.27 2.967c-1.185-.712-2.748-2.347-2.642-3 .008-.054.034-.215.444-.257a1.222 1.222 0 0 1 .137-.009z" transform="translate(-1679.102 502.603)"/>
            <path id="Path_51983" data-name="Path 51983" class="cls-17" d="M1953.738-85.19h-9.618l-.958-22.273h9.618z" transform="translate(-1678.302 498.318)"/>
            <path id="Path_51984" data-name="Path 51984" class="cls-17" d="m2025.035-121.024-7.511 6.007-19.088-13.254 7.511-6.007z" transform="translate(-1661.211 490.026)"/>
            <path id="Path_51985" data-name="Path 51985" class="cls-7" d="m2013.52-118 7.675-7.607a.838.838 0 0 1 1.045-.11l7.367 4.734a1.414 1.414 0 0 1 .2 2.206c-2.724 2.609-4.183 3.743-7.557 7.088-2.077 2.057-7.142 8.211-10.009 11.054-2.8 2.779-6.052.378-5.132-1.042 4.121-6.368 5.531-11.621 5.715-14.8a2.336 2.336 0 0 1 .696-1.523z" transform="translate(-1658.577 492.632)"/>
            <path id="Path_51986" data-name="Path 51986" class="cls-7" d="M1949.428-91.3h10.5a.841.841 0 0 1 .82.657l1.9 8.549a1.4 1.4 0 0 1-1.384 1.71c-3.789-.064-9.264-.285-14.026-.285-5.569 0-10.378.3-16.908.3-3.947 0-5.043-3.992-3.391-4.354 7.524-1.646 13.667-1.821 20.17-5.831a4.456 4.456 0 0 1 2.319-.746z" transform="translate(-1683.546 503.315)"/>
            <g id="Group_11009" data-name="Group 11009" transform="translate(308.063 114.888)">
                <path id="Path_51987" data-name="Path 51987" class="cls-11" d="M1991.229-317.163c8.342 3.993 11.835 30.853 11.835 30.853l-19.181 7.523a152.323 152.323 0 0 1-7.208-22.458c-2.747-12.146 6.025-20.001 14.554-15.918z" transform="translate(-1976.161 318.252)"/>
                <path id="Path_51988" data-name="Path 51988" class="cls-19" d="M1991.229-317.163c8.342 3.993 11.835 30.853 11.835 30.853l-19.181 7.523a152.323 152.323 0 0 1-7.208-22.458c-2.747-12.146 6.025-20.001 14.554-15.918z" transform="translate(-1976.161 318.252)"/>
            </g>
            <path id="Path_51989" data-name="Path 51989" class="cls-20" d="M1978.8-311.212a10.7 10.7 0 0 0-2.042-.745 17.614 17.614 0 0 0-.078 8.772 152.508 152.508 0 0 0 7.2 22.453l6.323-2.474c-1.168-7.033-4.742-24.81-11.403-28.006z" transform="translate(-1668.097 435.087)"/>
            <g id="Group_11010" data-name="Group 11010" transform="translate(262.788 112.782)">
                <path id="Path_51990" data-name="Path 51990" class="cls-11" d="M1946.3-316.871s-10.237 11.563-.57 83.132h51.443c.355-7.9-4.607-46.419 3.009-83.627a134.076 134.076 0 0 0-17.22-2.175 188.763 188.763 0 0 0-21.867 0 96.624 96.624 0 0 0-14.795 2.67z" transform="translate(-1941.579 319.861)"/>
                <path id="Path_51991" data-name="Path 51991" class="cls-19" d="M1946.3-316.871s-10.237 11.563-.57 83.132h51.443c.355-7.9-4.607-46.419 3.009-83.627a134.076 134.076 0 0 0-17.22-2.175 188.763 188.763 0 0 0-21.867 0 96.624 96.624 0 0 0-14.795 2.67z" transform="translate(-1941.579 319.861)"/>
            </g>
            <path id="Path_51992" data-name="Path 51992" class="cls-20" d="M1956.657-304.166c-2.331-6.991-7.934-9.23-13.642-5.08-1.152 6.782-1.964 17.714-1.034 35.046l10.042-.09s8.103-19.467 4.634-29.876z" transform="translate(-1678.792 435.281)"/>
            <path id="Path_51993" data-name="Path 51993" class="cls-17" d="M1963.539-307.6c-.423 3.5-1 6.693-1.642 10.006-.625 3.286-1.388 6.546-2.233 9.806a112.834 112.834 0 0 1-6.838 19.4c-.742 1.605-1.612 3.2-2.524 4.784-.482.795-.948 1.585-1.487 2.374a16.09 16.09 0 0 1-2.446 3 17.332 17.332 0 0 1-6.285 3.726 27.532 27.532 0 0 1-5.846 1.379 48.7 48.7 0 0 1-10.726.136q-2.584-.224-5.107-.674c-1.7-.3-3.314-.609-5.068-1.079l.857-7.171c6.063-.411 12.487-1.071 17.694-2.63a20.772 20.772 0 0 0 3.425-1.377 4.986 4.986 0 0 0 1.824-1.448c-.1.092.854-1.49 1.417-2.66a58.251 58.251 0 0 0 1.729-3.915 85.649 85.649 0 0 0 2.9-8.467c.881-2.905 1.633-5.893 2.341-8.9s1.338-6.055 1.956-9.107c.6-3.023 1.131-6.2 1.6-9.091z" transform="translate(-1687.524 435.845)"/>
            <g id="Group_11011" data-name="Group 11011" transform="translate(248.918 115.187)">
                <path id="Path_51994" data-name="Path 51994" class="cls-11" d="M1962.432-310.424c2.709 8.786-8.279 34.977-8.279 34.977l-23.168-5.826s2.126-13.283 7.11-24.084c7.52-16.294 21.085-15.614 24.337-5.067z" transform="translate(-1930.985 318.024)"/>
                <path id="Path_51995" data-name="Path 51995" class="cls-19" d="M1962.432-310.424c2.709 8.786-8.279 34.977-8.279 34.977l-23.168-5.826s2.126-13.283 7.11-24.084c7.52-16.294 21.085-15.614 24.337-5.067z" transform="translate(-1930.985 318.024)"/>
            </g>
            <path id="Path_51996" data-name="Path 51996" class="cls-17" d="m1916.813-273.058-10.891-.27L1911.16-262s4.43.589 8.071-5.4l3.84-4.572-4.416-.886a10.75 10.75 0 0 0-1.842-.2z" transform="translate(-1689.817 447.031)"/>
            <path id="Path_51997" data-name="Path 51997" class="cls-17" d="m1900.67-271.22 6.236 9.389 5.878-.169-5.238-11.328z" transform="translate(-1691.44 447.031)"/>
            <g id="Group_11012" data-name="Group 11012" transform="translate(264.863 355.75)">
                <path id="Path_51998" data-name="Path 51998" class="cls-20" d="m1943.164-107.458.492 11.481h9.622l-.492-11.481z" transform="translate(-1943.164 142.569)"/>
                <path id="Path_51999" data-name="Path 51999" class="cls-20" d="m2005.953-134.277-7.514 6.01 9.843 6.829 7.514-6.01z" transform="translate(-1926.073 134.277)"/>
            </g>
            <path id="Path_52000" data-name="Path 52000" class="cls-17" d="M1977.533-340.863c-.577 9.528-.431 15.134-5.238 20.028-7.232 7.363-19 3.009-21.277-6.5-2.054-8.558-.766-22.7 8.557-26.5a13.019 13.019 0 0 1 17.958 12.972z" transform="translate(-1676.133 421.826)"/>
            <path id="Path_52001" data-name="Path 52001" class="cls-7" d="M1985.074-348.044s5.01 1.5 3.451 7.219c-2.37 8.687-7.948 18.693-15.158 19.328-8.96.789-13-8.467-14.183-18.03-5.372-3.678-9.349-7.125-8.073-10.954 1.964-5.891 9.094-10.97 20.424-9.655 11.292 1.308 16.986 8.636 13.539 12.092z" transform="translate(-1675.918 420.124)"/>
            <path id="Path_52002" data-name="Path 52002" class="cls-17" d="M1963.147-342a10.783 10.783 0 0 1-2.7 6.378c-2.1 2.309-4.284.871-4.656-1.943-.334-2.532.355-6.786 2.918-8.058 2.524-1.26 4.609.764 4.438 3.623z" transform="translate(-1674.422 424.558)"/>
            <g id="Group_11013" data-name="Group 11013" transform="translate(284.357 198.904)">
                <path id="Path_52003" data-name="Path 52003" class="cls-11" d="M1958.887-254.079s-3.245 64.837 3.074 92.3c10.012 43.5 54.042 78.351 54.042 78.351l14.166-11.33s-36.226-26.958-39.482-63.164c-2.925-32.526 1.4-69.883 1.4-96.156z" transform="translate(-1958.054 254.079)"/>
                <path id="Path_52004" data-name="Path 52004" class="cls-20" d="M1958.887-254.079s-3.245 64.837 3.074 92.3c10.012 43.5 54.042 78.351 54.042 78.351l14.166-11.33s-36.226-26.958-39.482-63.164c-2.925-32.526 1.4-69.883 1.4-96.156z" transform="translate(-1958.054 254.079)"/>
                <path id="Path_52005" data-name="Path 52005" class="cls-20" d="M1963.709-239.29c-1.338-2.531-3.862 5-5.643 14.663-.052 13.328.236 28.488 1.4 41.33 8.901-16.429 7.01-50.76 4.243-55.993z" transform="translate(-1958.052 258.499)"/>
            </g>
            <g id="Group_11014" data-name="Group 11014" transform="translate(335.896 353.249)">
                <path id="Path_52006" data-name="Path 52006" class="cls-21" d="M1997.421-122.672c-.059.047 5.361 4.159 5.361 4.159l16.33-13.24-4.9-4.434z" transform="translate(-1997.421 136.187)"/>
                <path id="Path_52007" data-name="Path 52007" class="cls-22" d="M1997.421-122.672c-.059.047 5.361 4.159 5.361 4.159l16.33-13.24-4.9-4.434z" transform="translate(-1997.421 136.187)"/>
            </g>
            <g id="Group_11015" data-name="Group 11015" transform="translate(251.355 198.904)">
                <path id="Path_52008" data-name="Path 52008" class="cls-11" d="M1948.433-254.079s-14.488 61.4-15.508 90.733c-1.143 32.894 10.336 110.481 10.336 110.481h16.293s2.006-78.191 2.731-108.152c.791-32.663 19.963-93.062 19.963-93.062z" transform="translate(-1932.846 254.079)"/>
                <path id="Path_52009" data-name="Path 52009" class="cls-20" d="M1948.433-254.079s-14.488 61.4-15.508 90.733c-1.143 32.894 10.336 110.481 10.336 110.481h16.293s2.006-78.191 2.731-108.152c.791-32.663 19.963-93.062 19.963-93.062z" transform="translate(-1932.846 254.079)"/>
            </g>
            <g id="Group_11016" data-name="Group 11016" transform="translate(258.631 393.629)">
                <path id="Path_52010" data-name="Path 52010" class="cls-21" d="M1938.408-105.344c-.075 0 .92 6.763.92 6.763h19.819l.535-6.037z" transform="translate(-1938.404 105.344)"/>
                <path id="Path_52011" data-name="Path 52011" class="cls-22" d="M1938.408-105.344c-.075 0 .92 6.763.92 6.763h19.819l.535-6.037z" transform="translate(-1938.404 105.344)"/>
            </g>
            <path id="Path_52012" data-name="Path 52012" d="M1958.8-297.041a108.79 108.79 0 0 1-5.891 35.44 108.708 108.708 0 0 1-12.176 24.665 109.227 109.227 0 0 1-13.851 16.954 108.61 108.61 0 0 1-77.047 31.918 14.712 14.712 0 0 1-3.823-.5 14.832 14.832 0 0 1-6.559-3.8 14.7 14.7 0 0 1-4.294-10.382h.026a14.594 14.594 0 0 1 3.43-9.413 14.637 14.637 0 0 1 11.233-5.263h.013a79.459 79.459 0 0 0 56.257-23.356 79.491 79.491 0 0 0 23.356-56.27 79.49 79.49 0 0 0-23.356-56.27 79.521 79.521 0 0 0-56.283-23.356 79.466 79.466 0 0 0-56.27 23.356 79.5 79.5 0 0 0-23.369 56.27 14.622 14.622 0 0 1-4.294 10.382 13.27 13.27 0 0 1-1.283 1.139 14.542 14.542 0 0 1-9.086 3.155 14.622 14.622 0 0 1-10.382-4.294 14.654 14.654 0 0 1-4.281-9.623c-.013-.249-.013-.511-.013-.759l.039-2.815c.026-.93.052-1.859.1-2.789a108.633 108.633 0 0 1 31.788-71.443 109.046 109.046 0 0 1 39.577-25.307c2.5-.917 5.053-1.741 7.633-2.474.668-.2 1.335-.367 2-.55q3.869-1.021 7.829-1.754a36.82 36.82 0 0 1 1.27-.223l.2-.039 1.938-.314c.9-.144 1.807-.262 2.723-.38s1.82-.223 2.736-.314a68.919 68.919 0 0 1 2.226-.2c.314-.039.642-.065.969-.079.118-.013.222-.013.327-.026.668-.039 1.335-.092 2.016-.118a83.71 83.71 0 0 1 2.789-.1c.89-.026 1.781-.039 2.684-.039h.131l3.522.065c.8.026 1.61.065 2.422.1a108.48 108.48 0 0 1 71.1 31.748 108.633 108.633 0 0 1 31.924 77.058z" transform="translate(-1740.856 406.006)" style="fill:#518eda"/>
        </g>
    </g>
</svg>
