<svg xmlns="http://www.w3.org/2000/svg" width="92.697" height="92.709">
    <defs>
        <style>
            .cls-1{fill:#0090df;stroke:#fff;stroke-width:.7px}
        </style>
    </defs>
    <g id="two_people_icon" data-name="two people icon" transform="translate(401.018 64.726)">
        <path id="Path_51799" data-name="Path 51799" class="cls-1" d="M-261.438-64.376c5.68.118 10.693 1.649 14.949 5.317a3.832 3.832 0 0 0 1.041.564c5.405 2.246 9.565 5.806 11.241 11.586 1.9 6.536-.163 12.025-5.1 16.5-.612.555-.786.991-.419 1.694q1.982 3.8 3.949 7.613a5.865 5.865 0 0 1 .592 1.239 1.34 1.34 0 0 1-1.716 1.6c-3.25-1.453-6.5-2.918-9.682-4.505a22.187 22.187 0 0 1-2.779-2.12 1.724 1.724 0 0 0-1.111-.378 23.536 23.536 0 0 1-16.074-2.953 1.006 1.006 0 0 0-1.3.086 50.839 50.839 0 0 1-10.762 5.626 1.32 1.32 0 0 1-1.591-.336 1.345 1.345 0 0 1-.212-1.7c.456-.8 1.009-1.555 1.428-2.377 1.022-2 1.991-4.024 2.98-6.039a1.115 1.115 0 0 0-.354-1.55c-4.022-3.577-6.214-8-5.79-13.494a15.812 15.812 0 0 1 5.761-10.915 22.575 22.575 0 0 1 14.949-5.458zm-14.34 37.263a4.676 4.676 0 0 0 .643-.252c2.394-1.5 4.81-2.96 7.158-4.525a2.811 2.811 0 0 1 2.29-.553c6.124 1.161 11.829.153 16.839-3.7 7.227-5.555 7.412-14.981.468-20.863a18.867 18.867 0 0 0-10.385-4.356 20.23 20.23 0 0 0-14.983 3.834c-7.364 5.59-7.583 15.174-.535 21.149 1.827 1.549 1.881 1.569 1.011 3.875-.574 1.521-1.332 2.972-2.013 4.452-.122.265-.271.518-.492.939zm33.965-25.913c.162.456.248.711.343.962a14.458 14.458 0 0 1-.908 12.665c-3.193 5.724-8.294 8.766-14.583 9.964-1.472.28-2.984.346-4.53.516.183.084.314.158.454.205.262.087.528.163.8.235a21.761 21.761 0 0 0 10.316.311 1.693 1.693 0 0 1 1.718.561 11.937 11.937 0 0 0 2.149 1.871c1.894 1.143 3.863 2.159 5.874 3.266-.946-2.453-1.81-4.688-2.669-6.923a1.867 1.867 0 0 1 .737-2.325 19.755 19.755 0 0 0 3.174-3.2c4.738-6.408 2.475-14.082-2.875-18.108z" transform="translate(-96.51)"/>
        <path id="Path_51800" data-name="Path 51800" class="cls-1" d="M-381.731 345.327H-398.6c-1.677 0-2.1-.4-2.071-2.081a46.266 46.266 0 0 1 .261-7.02 12.683 12.683 0 0 1 12.371-10.73c4.593-.171 9.206-.123 13.8.1 5.666.28 10.812 5.421 11.284 11.089.194 2.333.152 4.687.163 7.032.005 1.162-.553 1.6-1.89 1.6-2.842.01-5.683.005-8.525.006zm16.066-2.917c0-1.491.042-2.879-.007-4.265a10.05 10.05 0 0 0-9.934-9.823c-4.107-.063-8.216-.041-12.323 0a9.81 9.81 0 0 0-7.2 3.277c-2.952 3.094-2.819 6.913-2.605 10.812z" transform="translate(0 -317.696)"/>
        <path id="Path_51801" data-name="Path 51801" class="cls-1" d="M-88.817 345.306h-16.485c-2.207 0-2.5-.261-2.457-2.43a41.886 41.886 0 0 1 .292-6.826 12.655 12.655 0 0 1 12.3-10.575c4.59-.176 9.2-.137 13.789.1 5.7.3 10.944 5.651 11.359 11.369.161 2.212.132 4.44.136 6.66 0 1.277-.533 1.7-1.987 1.7q-8.473.005-16.947.002zm16.065-2.924c0-1.469.026-2.855 0-4.24a10.084 10.084 0 0 0-9.832-9.839 462.88 462.88 0 0 0-12.415 0 9.858 9.858 0 0 0-7.749 3.9c-2.487 3.019-2.213 6.582-2.1 10.183z" transform="translate(-238.789 -317.674)"/>
        <path id="Path_51802" data-name="Path 51802" class="cls-1" d="M-56.913 221.615a11.581 11.581 0 0 1-11.657-11.531 11.739 11.739 0 0 1 11.578-11.664 11.666 11.666 0 0 1 11.652 11.663 11.606 11.606 0 0 1-11.573 11.532zm.062-20.333a8.767 8.767 0 0 0-8.855 8.479 8.7 8.7 0 0 0 8.371 9.026 8.675 8.675 0 0 0 9.113-8.561 8.644 8.644 0 0 0-8.629-8.944z" transform="translate(-270.717 -214.208)"/>
        <path id="Path_51803" data-name="Path 51803" class="cls-1" d="M-349.13 221.6a11.6 11.6 0 0 1-11.643-11.558 11.672 11.672 0 0 1 11.595-11.636 11.646 11.646 0 0 1 11.634 11.586A11.582 11.582 0 0 1-349.13 221.6zm-.043-20.332a8.656 8.656 0 0 0-8.723 8.773 8.683 8.683 0 0 0 8.766 8.74A8.689 8.689 0 0 0-340.4 210a8.664 8.664 0 0 0-8.774-8.729z" transform="translate(-32.504 -214.198)"/>
        <path id="Path_51804" data-name="Path 51804" class="cls-1" d="M-212.149 61.372h7.953c1.13 0 1.708.459 1.742 1.341.035.909-.57 1.48-1.722 1.483q-8.138.026-16.276 0c-1.061 0-1.542-.512-1.525-1.438.016-.886.555-1.377 1.6-1.382 2.741-.013 5.484-.004 8.228-.004z" transform="translate(-145.651 -102.484)"/>
        <path id="Path_51805" data-name="Path 51805" class="cls-1" d="M-212.217-7.931h-8.05c-1.149 0-1.733-.517-1.707-1.464.025-.907.551-1.315 1.727-1.316h16.1c1.245 0 2 1.035 1.394 2a1.975 1.975 0 0 1-1.415.752c-2.681.067-5.366.029-8.049.028z" transform="translate(-145.653 -43.714)"/>
        <path id="Path_51806" data-name="Path 51806" class="cls-1" d="M-212.267 25.306c2.714 0 5.429-.012 8.143 0 1.223.007 1.968 1.074 1.371 2.038a1.749 1.749 0 0 1-1.251.724c-5.49.049-10.981.042-16.471.027a1.343 1.343 0 0 1-1.5-1.48c.034-.84.567-1.305 1.564-1.309 2.711-.006 5.429.001 8.144 0z" transform="translate(-145.652 -73.088)"/>
    </g>
</svg>
