<svg xmlns="http://www.w3.org/2000/svg" width="83.07" height="92">
    <defs>
        <style>
            .cls-1{fill:#0090df}
        </style>
    </defs>
    <g id="wallet_icon" data-name="wallet icon" transform="translate(-247 -106.276)">
        <path id="Path_51811" data-name="Path 51811" class="cls-1" d="M298.892 435.2v-3.081a2.791 2.791 0 0 0-2.788-2.788h-9.04a2.791 2.791 0 0 0-2.788 2.788v3.081a2.791 2.791 0 0 0 2.788 2.788h9.04a2.791 2.791 0 0 0 2.788-2.788zm-11.918 0v-3.081a.09.09 0 0 1 .09-.09h9.04a.09.09 0 0 1 .09.09v3.081a.09.09 0 0 1-.09.09h-9.04a.09.09 0 0 1-.09-.09zm0 0" transform="translate(-28.338 -245.666)"/>
        <path id="Path_51812" data-name="Path 51812" class="cls-1" d="M487.406 367.2a4.328 4.328 0 1 0 4.328 4.329 4.333 4.333 0 0 0-4.328-4.329zm0 5.958a1.63 1.63 0 1 1 1.631-1.63 1.632 1.632 0 0 1-1.631 1.63zm0 0" transform="translate(-179.523 -198.418)"/>
        <path id="Path_51813" data-name="Path 51813" class="cls-1" d="M322.768 156.882h-1.628v-19.49a4.33 4.33 0 0 0-4.325-4.325h-1.629v-18a2.838 2.838 0 0 0-2.836-2.836h-26.792c-.047 0-.093 0-.14.006V110.5a4.227 4.227 0 0 0-4.223-4.223h-24.018a4.227 4.227 0 0 0-4.223 4.223v4.849a1.348 1.348 0 1 0 2.7 0V110.5a1.529 1.529 0 0 1 1.527-1.527h1.73v36h-3.258v-24.235a1.348 1.348 0 1 0-2.7 0v12.455a7.3 7.3 0 0 0-5.953 7.132V190.974a7.31 7.31 0 0 0 7.3 7.3h6.235a1.348 1.348 0 1 0 0-2.7H254.3a4.612 4.612 0 0 1-4.606-4.606v-45a7.468 7.468 0 0 0 4.486 1.692l62.634.006a1.631 1.631 0 0 1 1.628 1.629v13.536H301.93a4.329 4.329 0 0 0-4.324 4.325v11.907a4.329 4.329 0 0 0 4.324 4.325h16.513v10.559a1.631 1.631 0 0 1-1.628 1.629h-50.888a1.348 1.348 0 0 0 0 2.7h50.888a4.329 4.329 0 0 0 4.324-4.325v-10.559h1.629a7.31 7.31 0 0 0 7.3-7.3v-11.909a7.309 7.309 0 0 0-7.3-7.3zM249.7 140.5a4.613 4.613 0 0 1 3.257-4.537v8.78a4.655 4.655 0 0 1-3.257-4.243zm35.861-25.574h26.791a.141.141 0 0 1 .141.14v29.908h-3.259v-21.62a2.077 2.077 0 0 0-1.634-2.04 2.116 2.116 0 0 1-1.5-1.5 2.1 2.1 0 0 0-2.04-1.635h-10.213a2.077 2.077 0 0 0-2.04 1.634 2.115 2.115 0 0 1-1.5 1.5 2.1 2.1 0 0 0-1.635 2.04v21.62h-3.258v-29.907a.14.14 0 0 1 .14-.14zm20.979 30.049h-15.169v-21.164a4.868 4.868 0 0 0 2.932-2.932h9.3a4.865 4.865 0 0 0 2.931 2.932zM282.722 110.5v34.476h-15.166v-36h13.638a1.529 1.529 0 0 1 1.527 1.527zM261.6 144.974v-36h3.259v36zm55.213 0h-1.629v-9.212h1.629a1.63 1.63 0 0 1 1.628 1.629v7.9a4.29 4.29 0 0 0-1.628-.32zm10.559 31.116a4.612 4.612 0 0 1-4.606 4.606h-20.835a1.631 1.631 0 0 1-1.629-1.629V167.16a1.631 1.631 0 0 1 1.629-1.629h19.349a1.348 1.348 0 1 0 0-2.7h-.141v-3.258h1.629a4.611 4.611 0 0 1 4.606 4.605zm0 0"/>
        <path id="Path_51814" data-name="Path 51814" class="cls-1" d="M450.129 218.1a4.329 4.329 0 1 0 4.328 4.329 4.333 4.333 0 0 0-4.328-4.329zm0 5.959a1.631 1.631 0 1 1 1.63-1.631 1.633 1.633 0 0 1-1.63 1.631zm0 0" transform="translate(-151.176 -85.035)"/>
        <path id="Path_51815" data-name="Path 51815" class="cls-1" d="M459.575 186.5a1.349 1.349 0 0 0 1.349-1.349v-2.98a1.349 1.349 0 1 0-2.7 0v2.98a1.349 1.349 0 0 0 1.349 1.349zm0 0" transform="translate(-160.621 -56.691)"/>
        <path id="Path_51816" data-name="Path 51816" class="cls-1" d="M349.19 142.764h3.081a2.791 2.791 0 0 0 2.788-2.788v-6.06a2.791 2.791 0 0 0-2.788-2.788h-3.081a2.791 2.791 0 0 0-2.788 2.788v6.06a2.791 2.791 0 0 0 2.788 2.788zm-.09-8.848a.09.09 0 0 1 .09-.09h3.081a.09.09 0 0 1 .09.09v6.06a.09.09 0 0 1-.09.09h-3.081a.09.09 0 0 1-.09-.09zm0 0" transform="translate(-75.589 -18.893)"/>
    </g>
</svg>
