<svg xmlns="http://www.w3.org/2000/svg" width="92" height="85.973">
    <defs>
        <style>
            .cls-1{fill:#0090df}
        </style>
    </defs>
    <g id="_24_7_icon" data-name="24/7 icon" transform="translate(-228 -118.276)">
        <path id="Path_51826" data-name="Path 51826" class="cls-1" d="M256.387 204.249a1.8 1.8 0 0 1-1.8-1.8v-11.734a37.191 37.191 0 0 1-18.636-12.574A36.575 36.575 0 0 1 228 155.235a37 37 0 0 1 36.959-36.959h18.083a36.969 36.969 0 0 1 32.3 54.934 1.8 1.8 0 1 1-3.138-1.75 33.376 33.376 0 0 0-29.162-49.59h-18.083a33.368 33.368 0 0 0-8.135 65.729 1.8 1.8 0 0 1 1.361 1.743v8.771l8.988-8.988a1.8 1.8 0 0 1 1.27-.526h14.6a33.175 33.175 0 0 0 18.9-5.865 1.8 1.8 0 0 1 2.038 2.96 36.752 36.752 0 0 1-20.938 6.5h-13.856l-11.529 11.529a1.794 1.794 0 0 1-1.271.527zm0 0"/>
        <path id="Path_51827" data-name="Path 51827" class="cls-1" d="M560.568 367.346a1.773 1.773 0 1 1 1.252-.519 1.786 1.786 0 0 1-1.252.519zm0 0" transform="translate(-251.363 -186.666)"/>
        <path id="Path_51828" data-name="Path 51828" class="cls-1" d="M379.981 237.63h-.464v-6.7a1.771 1.771 0 0 0-3.543 0v6.7h-5.544v-6.7a1.771 1.771 0 1 0-3.543 0v8.47a1.771 1.771 0 0 0 1.771 1.771h7.316v6.729a1.771 1.771 0 0 0 3.543 0v-6.723h.464a1.771 1.771 0 0 0 0-3.543zm0 0" transform="translate(-105.519 -84.194)"/>
        <path id="Path_51829" data-name="Path 51829" class="cls-1" d="M305.408 249.667h-8.485a1.772 1.772 0 0 1-1.253-3.024l5.485-5.485a8.413 8.413 0 0 0 2.481-5.989 2.471 2.471 0 1 0-4.941 0 1.771 1.771 0 1 1-3.543 0 6.013 6.013 0 1 1 12.027 0 11.938 11.938 0 0 1-3.518 8.5l-2.461 2.461h4.208a1.771 1.771 0 0 1 0 3.543zm0 0" transform="translate(-51.028 -84.194)"/>
        <path id="Path_51830" data-name="Path 51830" class="cls-1" d="M495.692 249.667a1.772 1.772 0 0 1-1.583-2.564l7.2-14.405h-5.619a1.771 1.771 0 1 1 0-3.543h8.485a1.771 1.771 0 0 1 1.584 2.563l-8.484 16.969a1.773 1.773 0 0 1-1.586.98zm0 0" transform="translate(-202.073 -84.194)"/>
        <path id="Path_51831" data-name="Path 51831" class="cls-1" d="M441.52 243.255a1.8 1.8 0 0 1-.459-.061 1.772 1.772 0 0 1-1.253-2.17l6.075-22.673a1.772 1.772 0 0 1 3.423.917l-6.075 22.673a1.773 1.773 0 0 1-1.71 1.314zm0 0" transform="translate(-160.931 -74.949)"/>
    </g>
</svg>
