<svg xmlns="http://www.w3.org/2000/svg" width="184.882" height="44.149">
    <defs>
        <style>
            .cls-1{fill:#0090df}.cls-2{fill:#0b284a}
        </style>
    </defs>
    <g id="Logo">
        <g id="icon">
            <g id="light_blue" data-name="light blue">
                <path id="Path_51357" data-name="Path 51357" class="cls-1" d="M44.687 36.364a2.393 2.393 0 0 1 2.392-2.394A13.013 13.013 0 0 0 60.07 20.979 13.013 13.013 0 0 0 47.077 7.987a13.012 13.012 0 0 0-12.993 12.992 2.4 2.4 0 0 1-2.393 2.394 2.393 2.393 0 0 1-2.391-2.394A17.78 17.78 0 0 1 47.076 3.2a17.781 17.781 0 0 1 17.78 17.78 17.781 17.781 0 0 1-17.78 17.78 2.393 2.393 0 0 1-2.393-2.395z" transform="translate(-4.542 -.496)"/>
                <path id="Path_51359" data-name="Path 51359" class="cls-1" d="m75.389 49.037-6.134-5.643a3.28 3.28 0 0 1-.3-4.615l.814-.929a3.279 3.279 0 0 1 4.614-.3l6.134 5.643a3.279 3.279 0 0 1 .3 4.614l-.817.929a3.282 3.282 0 0 1-4.611.301z" transform="translate(-10.565 -5.696)"/>
            </g>
            <g id="dark_blue" data-name="dark blue">
                <path id="Path_51358" data-name="Path 51358" class="cls-2" d="M29.784 2.393a2.394 2.394 0 0 1-2.393 2.395A13.013 13.013 0 0 0 14.4 17.779a13.012 13.012 0 0 0 12.99 12.992 13.013 13.013 0 0 0 12.994-12.992 2.394 2.394 0 0 1 2.395-2.394 2.393 2.393 0 0 1 2.393 2.393 17.78 17.78 0 0 1-17.779 17.78A17.779 17.779 0 0 1 9.613 17.78 17.78 17.78 0 0 1 27.393 0a2.393 2.393 0 0 1 2.394 2.392z" transform="translate(-1.49)"/>
                <path id="Path_51360" data-name="Path 51360" class="cls-2" d="m6.237 49.037 6.134-5.643a3.28 3.28 0 0 0 .3-4.615l-.813-.929a3.28 3.28 0 0 0-4.615-.3l-6.134 5.642a3.279 3.279 0 0 0-.3 4.614l.814.929a3.28 3.28 0 0 0 4.614.302z" transform="translate(0 -5.696)"/>
            </g>
        </g>
        <g id="wordmark" transform="translate(77.715 .835)">
            <g id="معيني">
                <path id="Rectangle_2868" data-name="Rectangle 2868" class="cls-2" transform="translate(8.844 40.261)" d="M0 0h2.07v2.513H0z"/>
                <path id="Rectangle_2869" data-name="Rectangle 2869" class="cls-2" transform="translate(5.79 40.261)" d="M0 0h2.07v2.513H0z"/>
                <path id="Path_51783" data-name="Path 51783" class="cls-2" d="M118.6 37.878h-12.951a6.988 6.988 0 0 1-1.246-.085 2.374 2.374 0 0 1-.924-.482l-1.166 2.09a4.624 4.624 0 0 0 1.487.734 6.487 6.487 0 0 0 1.649.192h.061a3.049 3.049 0 0 1-.522 1.969 2.059 2.059 0 0 1-1.605.564h-5.55a3.5 3.5 0 0 1-1.633-.36 2.751 2.751 0 0 1-1.1-.985 2.555 2.555 0 0 1-.392-1.387 13.13 13.13 0 0 1 .11-1.4q.113-.973.253-1.818l-2.513-.4q-.2.987-.372 2.151a13.467 13.467 0 0 0-.169 1.87 4.038 4.038 0 0 0 .894 2.653 5.34 5.34 0 0 0 2.261 1.605 7.658 7.658 0 0 0 2.754.522h5.609a4.709 4.709 0 0 0 3.417-1.206 5.242 5.242 0 0 0 1.306-3.78h15.364v-2.45H118.6z" transform="translate(-91.982 -6.495)"/>
                <path id="Rectangle_2870" data-name="Rectangle 2870" class="cls-2" transform="translate(31.646 31.377)" d="M0 0h5.025v2.45H0z"/>
                <path id="Rectangle_2871" data-name="Rectangle 2871" class="cls-2" transform="translate(36.671 31.377)" d="M0 0h5.025v2.45H0z"/>
                <path id="Rectangle_2872" data-name="Rectangle 2872" class="cls-2" transform="translate(44.773 19.294)" d="M0 0h2.472v2.613H0z"/>
                <path id="Path_51784" data-name="Path 51784" class="cls-2" d="M150.026 36.728h-3.014v-7.6h-2.694v7.6h-2.995v2.45h13.727v-2.45h-5.025z" transform="translate(-99.626 -5.351)"/>
                <path id="Rectangle_2873" data-name="Rectangle 2873" class="cls-2" transform="translate(57.174 35.437)" d="M0 0h2.07v2.512H0z"/>
                <path id="Rectangle_2874" data-name="Rectangle 2874" class="cls-2" transform="translate(60.229 35.437)" d="M0 0h2.07v2.512H0z"/>
                <path id="Path_51785" data-name="Path 51785" class="cls-2" d="M175.617 36.521a18.243 18.243 0 0 0 2.161-2.271 3.359 3.359 0 0 0 .734-2.07l.084-1.769a11.36 11.36 0 0 0-2.552-1.085 10.219 10.219 0 0 0-3.026-.482 9.978 9.978 0 0 0-3.015.482 10.54 10.54 0 0 0-2.472 1.086l.061 1.769a3.414 3.414 0 0 0 .734 2.07 16.5 16.5 0 0 0 2.161 2.271 6.525 6.525 0 0 1-1.366.161h-5.861v-7.6h-2.694v7.6h-2.995v2.45h11.61a8.705 8.705 0 0 0 1.943-.232 10.364 10.364 0 0 0 1.92-.633 10.2 10.2 0 0 0 1.943.633 9.254 9.254 0 0 0 2.04.232h2.634v-2.45H177a6.6 6.6 0 0 1-1.383-.162zm-.372-2.934a7.561 7.561 0 0 1-2.177 1.893 6.807 6.807 0 0 1-2.132-1.833 3.25 3.25 0 0 1-.723-1.85 8.621 8.621 0 0 1 2.835-.5 9.031 9.031 0 0 1 2.895.5 3.142 3.142 0 0 1-.694 1.79z" transform="translate(-102.145 -5.307)"/>
                <path id="Path_51786" data-name="Path 51786" class="cls-2" d="M194.459 29.516a6.82 6.82 0 0 0-3.188-.6 12.826 12.826 0 0 0-2.372.2 6.836 6.836 0 0 0-1.605.462 18.378 18.378 0 0 0-.5 2.192 13.777 13.777 0 0 0-.221 2.372 13.5 13.5 0 0 0 .281 2.553h-3.136v2.45h12.643V34.12a8.861 8.861 0 0 0-.392-2.895 3.079 3.079 0 0 0-1.51-1.709zm-.794 7.177h-4.2q-.1-.442-.191-1.156a11.182 11.182 0 0 1-.09-1.4 14.572 14.572 0 0 1 .281-2.653 7.307 7.307 0 0 1 1.528-.161 2.684 2.684 0 0 1 2.121.663 3.2 3.2 0 0 1 .553 2.07z" transform="translate(-106.198 -5.316)"/>
                <path id="Path_51787" data-name="Path 51787" class="cls-2" d="m188.938 27.477 3.887-.76v-.963a2.117 2.117 0 0 0-.372-1.4 1.549 1.549 0 0 0-1.352-.591 1.533 1.533 0 0 0-1.174.422 1.515 1.515 0 0 0-.4 1.082 2.91 2.91 0 0 0 .27 1.149l-.862.237zm1.859-2.543a.635.635 0 0 1 .338-.093.622.622 0 0 1 .414.152.637.637 0 0 1 .177.507 2.049 2.049 0 0 1-.051.406l-.727.186a1.725 1.725 0 0 1-.3-.828.355.355 0 0 1 .152-.331z" transform="translate(-107.008 -4.518)"/>
            </g>
            <g id="mueeny">
                <path id="Path_51777" data-name="Path 51777" class="cls-2" d="m94.974 4.7.517-.253a8.97 8.97 0 0 1 1.6-.517 8.02 8.02 0 0 1 1.85-.23 2.933 2.933 0 0 1 1.855.5 2.68 2.68 0 0 1 .854 1.644 18.268 18.268 0 0 1 .226 3.305v8.32h3.032v-8.38a19.438 19.438 0 0 0-.356-4.386l.58-.253a9.108 9.108 0 0 1 1.709-.532 8.871 8.871 0 0 1 1.871-.21 2.932 2.932 0 0 1 1.855.5 2.712 2.712 0 0 1 .871 1.612 15.687 15.687 0 0 1 .242 3.144v8.514h3V8.9a17.409 17.409 0 0 0-.484-4.58 4.447 4.447 0 0 0-1.613-2.52 5.3 5.3 0 0 0-3.127-.8 10.963 10.963 0 0 0-3.112.451 14.131 14.131 0 0 0-2.821 1.16 3.694 3.694 0 0 0-1.677-1.211 6.5 6.5 0 0 0-2.322-.4 7.29 7.29 0 0 0-2.258.355 12.094 12.094 0 0 0-2.322 1.065V1.353h-2.966v16.118h3z" transform="translate(-91.975 -.988)"/>
                <path id="Path_51778" data-name="Path 51778" class="cls-2" d="M125.764 17.109a5.588 5.588 0 0 0 3.224.793 8.3 8.3 0 0 0 2.37-.322 12.02 12.02 0 0 0 2.435-1.1v1.064h3V1.42h-3v12.771a14.56 14.56 0 0 1-2.048.742 7.653 7.653 0 0 1-2.015.258 3.3 3.3 0 0 1-1.919-.451 2.428 2.428 0 0 1-.854-1.565 18.165 18.165 0 0 1-.226-3.338V1.419h-3v8.417a19.613 19.613 0 0 0 .451 4.757 4.235 4.235 0 0 0 1.582 2.516z" transform="translate(-96.897 -1.055)"/>
                <path id="Path_51779" data-name="Path 51779" class="cls-2" d="M150.441 17.842a37.848 37.848 0 0 0 6.095-.645l-.064-2.323-.9.1q-1 .1-2.257.145t-2.258.049a6.66 6.66 0 0 1-2.645-.422 2.6 2.6 0 0 1-1.352-1.371 7.226 7.226 0 0 1-.451-2.693h10.288l.193-2.2Q157.086 1 150.509 1a6.215 6.215 0 0 0-5.239 2.177q-1.69 2.177-1.69 6.66 0 4.161 1.58 6.079t5.281 1.926zm-2.895-13.184a3.61 3.61 0 0 1 2.967-1.145 3.229 3.229 0 0 1 2.757 1.1 6.349 6.349 0 0 1 .823 3.709h-7.515a5.886 5.886 0 0 1 .968-3.664z" transform="translate(-99.976 -.99)"/>
                <path id="Path_51780" data-name="Path 51780" class="cls-2" d="M169.792 17.842a37.954 37.954 0 0 0 6.1-.645l-.065-2.323-.9.1q-1 .1-2.257.145t-2.258.049a6.66 6.66 0 0 1-2.645-.422 2.6 2.6 0 0 1-1.352-1.371 7.227 7.227 0 0 1-.452-2.693h10.288l.194-2.2Q176.438 1 169.859 1a6.216 6.216 0 0 0-5.239 2.177q-1.689 2.177-1.69 6.66 0 4.161 1.581 6.079t5.281 1.926zM166.9 4.658a3.613 3.613 0 0 1 2.967-1.145 3.226 3.226 0 0 1 2.757 1.1 6.336 6.336 0 0 1 .823 3.709h-7.515a5.9 5.9 0 0 1 .968-3.664z" transform="translate(-102.976 -.99)"/>
                <path id="Path_51781" data-name="Path 51781" class="cls-2" d="M194.219 1.8a5.528 5.528 0 0 0-3.193-.8 8.627 8.627 0 0 0-2.386.323 11.977 11.977 0 0 0-2.515 1.1v-1.07h-2.967v16.119h3V4.7l.548-.253a9.682 9.682 0 0 1 3.579-.742 3.143 3.143 0 0 1 1.919.5 2.633 2.633 0 0 1 .9 1.612 15.682 15.682 0 0 1 .242 3.144v8.514h3V8.9a17.386 17.386 0 0 0-.483-4.6 4.366 4.366 0 0 0-1.644-2.5z" transform="translate(-106.112 -.988)"/>
                <path id="Path_51782" data-name="Path 51782" class="cls-2" d="m213.174 1.42-3.708 13.545h-.966L204.821 1.42h-3l5.415 19.992-3.455 14.912h2.967l9.425-34.9z" transform="translate(-109.006 -1.055)"/>
            </g>
        </g>
    </g>
</svg>
